<?xml version="1.0" encoding="utf-8"?>
<!-- Generator: Adobe Illustrator 22.1.0, SVG Export Plug-In . SVG Version: 6.00 Build 0)  -->
<svg version="1.1" id="Layer_1" xmlns="http://www.w3.org/2000/svg" xmlns:xlink="http://www.w3.org/1999/xlink" x="0px" y="0px"
	 viewBox="0 0 320.4 525" style="enable-background:new 0 0 320.4 525;" xml:space="preserve">
<style type="text/css">
	.st0{fill:none;stroke:#FFFFFF;stroke-width:2;stroke-linecap:round;stroke-linejoin:round;stroke-miterlimit:10;}
</style>
<g id="Layer_1_1_">
	<path class="st0" d="M18.9,151.9c-0.4,1.5-0.9,3-1.4,5c1,1.4,2.2,3.2,3.4,5"/>
	<path class="st0" d="M40.4,248.9c0.3,2.8,0.7,5.7,1,8.5"/>
	<path class="st0" d="M153.9,500.6c1.8,0.5,3.5,1,5.8,1.7c0.9-3.5,1.5-6.2,2.2-8.9"/>
	<path class="st0" d="M202.4,378.8c0.2-4-2.9-3.1-5-2.9c-2.5,0.3-5.3,0.7-7.4,2c-6,3.8-12.7,5-19.6,5.4"/>
	<path class="st0" d="M109.9,37.9c1.3-0.6,2.7-1.2,4.2-1.9c-3.4-8.9-11-13.6-18.7-18.1c-0.1-0.1-0.4-0.1-0.5,0
		c-0.2,0.3-0.4,0.7-0.5,1"/>
	<path class="st0" d="M200.4,455.8c-1.2,6.9,1.5,13.3,2.1,20c0.3,3.4-0.8,5.1-4.1,5.5"/>
	<path class="st0" d="M77.4,47.9c-3.2-1.4-6.4-2.8-10-4.4c0-1.8,0-3.5,0-5.4c-1.3-0.3-2.2-0.5-3-0.8c-4.3-1.3-8.7-2.7-13-4
		c-1.3-0.4-2.7-0.4-4-0.5"/>
	<path class="st0" d="M131.6,435.3c-0.2,0.8-0.5,1.7-0.7,2.5"/>
	<path class="st0" d="M99.4,101.9c-1,1.2-1.9,2.4-3,3.5c-1.6,1.4-3.3,2.7-5,4"/>
	<path class="st0" d="M75.4,138.9c-1.7,5.7-2,12.1-7.5,16"/>
	<path class="st0" d="M37.4,146.4c2.2,5.2,0.1,9.5-3,13.5"/>
	<path class="st0" d="M236.4,67.9c-4.5,4.8-2.1,11.7-4.9,17c-0.2,0.5,0.9,1.6,1.4,2.4"/>
	<path class="st0" d="M152.9,348.9c0.3,2,0.5,4,0.7,5.2c-1,4.2-1.8,7.7-2.7,11.3"/>
	<path class="st0" d="M52.4,36.9c-5.6-1.3-10.8,0-16,2"/>
	<path class="st0" d="M157.9,446.8c-0.1-0.7-0.1-1.4-0.2-2.5c-3.1,7-5.9,13.3-8.7,19.6c0.6,0.1,1.3,0.2,1.9,0.3c0-0.8,0-1.7,0-2.5"
		/>
	<path class="st0" d="M128.9,469.8c1.8-0.7,3.7-1.3,5.5-2"/>
	<path class="st0" d="M146.9,444.3c-1.7,2.2-4.3,4.1-4.8,6.5c-0.8,3.9-3.2,3.4-5.7,3.5"/>
	<path class="st0" d="M167.4,54.9c-0.5-0.8-0.9-2.3-1.5-2.4c-4-0.5-8-0.8-12-1.1"/>
	<path class="st0" d="M111.4,57.9c5,0.7,10,1.3,15,2"/>
	<path class="st0" d="M56.4,339.4c-1.8,3.2-1.7,3.9-0.1,5.7c-0.7,4.7-1.3,8.7-1.9,12.8"/>
	<path class="st0" d="M165.4,430.8c-3.1,0.7-5.7,1.5-6.7,5.4c-0.7,2.7-3.6,4.9-5.6,7.6c-1.3-1-2.2-1.8-3.1-2.5"/>
	<path class="st0" d="M182.9,464.3c-2.7,1.5-4.2,3.7-3.5,7"/>
	<path class="st0" d="M161.9,441.3c0.3,4.8,0.2,9.3-2.8,13.6c-1.3,1.8-3.1,4.1-1.5,7.5c0.9,1.9-1.4,5.2-2.2,7.9"/>
	<path class="st0" d="M49.4,99.4c-3.7,1.3-1.4,5.5-3.9,7.6c-1.3,1.1-1.4,3.5-2.1,5.4"/>
	<path class="st0" d="M42.4,132.4c1.8,1.7,2,3.4,0.5,5.5c-1.1,1.6-2,3.3-3,5"/>
	<path class="st0" d="M32.9,42.9c-1.2,2-2.1,5.4-3.6,5.7c-4.1,0.8-2.9,4.3-4.3,6.4c-1.3,1.9-1.7,4.4-2.6,6.9c0,3.1-0.1,6.8,0.1,10.5
		c0,1,0.9,2,1.4,3"/>
	<path class="st0" d="M100.4,262.4c0,1.2,0,2.3,0,4.6c3.5-0.9,6.8-1.8,10-2.6"/>
	<path class="st0" d="M108.9,440.8c0.3,2.3,0.7,4.7,1,7"/>
	<path class="st0" d="M74.4,419.3c1.5,2.3,3,4.7,4.5,7"/>
	<path class="st0" d="M124.4,75.9c-3.5,3.4-6.9,6.8-10.5,10.3c1.3,0.5,2.7,1.1,4.4,1.8c0.9-0.9,2-2,3.1-3.1"/>
	<path class="st0" d="M55.4,159.9c-7,1.3-14,2.7-21,4"/>
	<path class="st0" d="M169.9,423.8c0.8,2.4,2.6,4.7-0.4,7.1c-0.9,0.8-0.5,3.2-0.6,4.9"/>
	<path class="st0" d="M95.4,60.4c-0.5,0.3-1.3,0.6-1.5,1c-1.6,5.1-3,10.3-4.5,15.5"/>
	<path class="st0" d="M170.9,413.8c-1.7-0.8-3.3-1.7-6.1-3.1c-0.8,2.3-1.6,4.4-2.4,6.6"/>
	<path class="st0" d="M105.4,259.9c-3.2,0.4-6.1,2.9-9.6,0.7c-0.8-0.5-2.9,1.2-4.4,1.8"/>
	<path class="st0" d="M158.9,373.4c2,0,4.1,0.4,6-0.1c2.5-0.7,4.7-2.2,7-3.4"/>
	<path class="st0" d="M219.4,373.9c-1-0.5-2.1-1.6-3-1.4c-4.1,0.9-8,2.3-12,3.3c-0.5,0.1-1.3-0.6-2-0.9"/>
	<path class="st0" d="M168.9,464.8c-0.6,3.7-1.2,7.4-1.8,11.2c-0.4-0.3-0.9-0.6-1.3-0.9c-2,1.6-3.9,3.2-5.9,4.8"/>
	<path class="st0" d="M160.4,431.3c-0.7-0.3-1.3-0.7-2.5-1.2c-2,2.9-4,5.8-6,8.7"/>
	<path class="st0" d="M152.9,382.6c-3.9,0.6-7.7,0.2-11-2.2"/>
	<path class="st0" d="M67.4,60.9c0.8,1.2,2.4,2.4,2.4,3.5c-0.2,4.2-0.9,8.3-1.5,12.6c-0.9-0.4-1.9-0.7-2.9-1.1"/>
	<path class="st0" d="M180.4,409.8c-0.9,3.4-1.8,6.8-2.9,11.1c0.4,0.3,1.6,1.3,2.9,2.4"/>
	<path class="st0" d="M128.4,375.9c-1.5,2.7-3,5.3-4.5,8"/>
	<path class="st0" d="M187.9,442.8c0.8,3.7,1.7,7.3,2.5,11"/>
	<path class="st0" d="M263.4,121.9c3.2,1.8,6.3,3.7,9.5,5.5"/>
	<path class="st0" d="M41.9,54.9c-1,3.4-2,6.9-3.2,11c-1.7,0.8-4.2,1.9-6.8,3"/>
	<path class="st0" d="M47.4,123.9c-2.9,3.3-5.7,6.6-8.6,9.8c-0.2-0.5-0.4-1-0.7-1.5c-2.4,0.6-4.8,1.1-7.2,1.7"/>
	<path class="st0" d="M115.4,77.9c-4.2,2.7-8.3,5.3-12.5,8c-0.4,0.2-1,0-1.5,0"/>
	<path class="st0" d="M33.4,125.4c-5.3,2.3-5.6,3.7-2.4,9.7c-1.1,3.1-1.6,6.8-6.1,7.3"/>
	<path class="st0" d="M89.9,38.4c-1.1-0.9-2.3-1.7-4-3c-1.4,0.9-3,2-4.5,3c0.2,0.2,0.3,0.4,0.5,0.5c0.1,0.1,0.3,0,0.5,0"/>
	<path class="st0" d="M39.9,48.9c0.4,3.5-2.8,8.7-6.5,10.5"/>
	<path class="st0" d="M117.4,44.4c6-2.1,10.3,2.9,16,4c3-1.1,6.5-2.3,10-3.5"/>
	<path class="st0" d="M144.9,364.9c-2.9,3.3-3.5,6.9-2,11"/>
	<path class="st0" d="M70.9,131.4c-1.7,1-3.5,2.1-5.5,3.3c4.1,4.8-1.1,7.5-2,11.2"/>
	<path class="st0" d="M206.9,472.8c3.1,5.5,3.8,12.5,10.5,15.5"/>
	<path class="st0" d="M132.9,461.8c1,3.3,2,6.7,3,10"/>
	<path class="st0" d="M166.9,451.8c3.3,4.6-2.2,4.1-4.3,6c-0.2,6.2-0.3,12.3-0.5,18.5"/>
	<path class="st0" d="M167.9,67.4c-2.8,0.2-5.7,0.1-8.5,0.5c-5.4,0.8-10.7,2-16,3"/>
	<path class="st0" d="M169.4,342.9c-3.5,0-7,0-10.5,0"/>
	<path class="st0" d="M148.9,347.4c-2.1,0.4-4.9-1.3-6,2"/>
	<path class="st0" d="M85.4,266.9c0.8-1.3,1.7-2.7,2.3-3.7c4.4,2.7,7.4,5.7,11.7,3.2"/>
	<path class="st0" d="M78.4,97.9c0.5,1,1,2,1.6,3.3c-3.3,2.4-6.7,4.8-10.1,7.2"/>
	<path class="st0" d="M173.9,470.3c-1,1.5-2,3-2.9,4.5c0.2,2,0.3,4,0.5,6c-0.7,0-0.9-0.1-1,0s0,0.3,0,0.5c-1.5-0.5-3.1-1-4.5-1.5
		c-0.2-3.3-0.3-6.2-0.5-9"/>
	<path class="st0" d="M73.9,366.9c-2.2,3.5-4.3,7-6.5,10.5"/>
	<path class="st0" d="M71.4,382.8c0.7,0.2,1.3,0.3,2,0.5"/>
	<path class="st0" d="M189.4,246.4c5.6-3.1,11.3-0.8,17-0.5"/>
	<path class="st0" d="M211.4,445.8c-1.6,3.8,1.3,6.4,2.5,9.5"/>
	<path class="st0" d="M135.4,366.9c-4.4,2.5-0.2,6.1-1,9"/>
	<path class="st0" d="M120.4,70.9c-1.7,0.1-3.3,0.2-5.1,0.3c-1.2,1.4-2.3,2.8-3.4,4.2"/>
	<path class="st0" d="M102.4,28.9c3.6,3.3,6.9,6.7,7.6,12c0.1,0.9,1.6,1.7,2.4,2.5"/>
	<path class="st0" d="M49.9,326.9c0,3.2,0,6.3,0,9.5"/>
	<path class="st0" d="M105.9,102.9c-2.3,4.4-4.7,8.7-9.5,11.1c-0.7,0.4-1,1.6-1.5,2.4"/>
	<path class="st0" d="M257.1,105.4c1.5,1.9,2.9,3.9,4.2,5.5c2.8-0.4,4.9-0.7,7.1-1"/>
	<path class="st0" d="M78.4,43.9c-2.7-2-5.3-4-8-6"/>
	<path class="st0" d="M39.9,75.4c1.2,5.5,2.3,11,3.5,16.5"/>
	<path class="st0" d="M198.9,485.3c-0.4,4.4-0.8,8.7-1.2,13.3c-2.1-0.6-3.4-0.9-4.8-1.3"/>
	<path class="st0" d="M70.9,395.3c-1.7,1.1-3.4,2.3-4.8,3.2c0.3,2.3,0.5,4.3,0.8,6.3"/>
	<path class="st0" d="M169.4,457.8c0,3.3-0.6,6.5-3,9"/>
	<path class="st0" d="M247.4,94.9c1.9,3.5,3.9,7.1,5.9,10.9c1.5-0.5,2.8-0.9,4.1-1.4"/>
	<path class="st0" d="M100.4,53.9c-3-1.3-6-2.7-9-4"/>
	<path class="st0" d="M202.4,236.9c-4,0.9-5,4.2-6,7.5"/>
	<path class="st0" d="M34.9,91.9c-1.6-4.2-5-1.2-7.5-2"/>
	<path class="st0" d="M146.4,472.3c-1.8,3.7-3.7,7.3-5.5,11"/>
	<path class="st0" d="M101.6,60.4c-2.4-1.7-4.8-3.3-7.2-5"/>
	<path class="st0" d="M81.4,45.4c2.5,0.4,3.9,1.3,4.3,4.5c0.2,1.8,3.1,3.4,4.7,5"/>
	<path class="st0" d="M39.4,66.4c0.6,2.5,4.3,4.5,1,7.5"/>
	<path class="st0" d="M52.4,71.4c2.3,1.2,4.9,2,6.9,3.6c1.3,1.1,1.8,3.2,2.6,4.9"/>
	<path class="st0" d="M58.4,87.9c-4.2,0.8-3.4,3-1.5,5.5"/>
	<path class="st0" d="M85.4,22.4c-2.7-0.2-5.3-0.3-8-0.5"/>
	<path class="st0" d="M204.4,457.8c0.3,0.7,1,1.4,1,2c-0.4,7.2,5.4,9.4,10.2,12.7c-0.2,1.3-0.4,2.8-0.6,4.3"/>
	<path class="st0" d="M128.4,59.9c2.7,0,5.3,0,8,0"/>
	<path class="st0" d="M138.9,433.3c-2.2,2.7-2,5.3,0,8"/>
	<path class="st0" d="M186.4,446.8c-0.2,2.6-0.4,5.3-0.6,7.4c3.7,0.9,6.1,1.5,8.6,2.1"/>
	<path class="st0" d="M173.4,56.9c-4.7-0.5-9.3-1-14-1.5"/>
	<path class="st0" d="M141.4,473.3c0.2-1.5,0.4-3,0.7-5.4c2.1,1.6,3.5,2.7,4.9,3.8c2.3-0.8,4.8-1.7,7.2-2.5
		c2.6,6.1,2.4,6.5-4.2,11.6c-1,0.8-2,1.7-3,2.5"/>
	<path class="st0" d="M143.9,360.4c1.5,4.2,3,8.3,4.5,12.5"/>
	<path class="st0" d="M197.4,444.8c-0.9,0.8-1.8,1.6-3.1,2.7c0.2,0.7,0.6,2,1.1,3.3"/>
	<path class="st0" d="M59.4,88.4c0.5,4.8,1,9.7,1.5,14.5"/>
	<path class="st0" d="M263.4,99.9c-2.3,3.7,0.2,6.8,1.5,10"/>
	<path class="st0" d="M30.4,116.4c-1,2.5-2,5-3,7.5"/>
	<path class="st0" d="M280.4,426.8c-0.6-0.6-1.2-1.2-1.8-1.8c-2.8,3.2,0.5,4.8,1.3,6.8"/>
	<path class="st0" d="M174.4,465.3c-0.7,2.3-1.3,4.7-2,7"/>
	<path class="st0" d="M131.9,379.8c-2.6,2.7-1.8,5.2,0.2,7.7"/>
	<path class="st0" d="M185.4,358.9c-0.8,2.8-1.7,5.7-2.5,8.5"/>
	<path class="st0" d="M106.9,435.3c-0.3,2.3-0.7,4.7-1,7"/>
	<path class="st0" d="M147.4,414.8c-0.7,2.3-1.3,4.7-2,7"/>
	<path class="st0" d="M113.4,99.9c0.3-1.7,0.5-3.3,0.9-6c-1.2-0.5-2.9-1.2-4.5-1.8c-1.8,3.7-3.2,6.6-5.2,10.5
		c2.8-0.4,4.3-0.5,5.8-0.7"/>
	<path class="st0" d="M106.4,457.3c-2,0.2-4,0.3-6,0.5"/>
	<path class="st0" d="M168.4,436.8c-4.7,0.5-7.4,3.6-9.5,7.5"/>
	<path class="st0" d="M159.9,501.8c2.6,2,5.4,2.9,8.8,1.1c-1.3-3.9-3.7-4.8-7.3-3.6"/>
	<path class="st0" d="M89.4,29.9c1.9,1.4,5.2,1.3,4.5,5"/>
	<path class="st0" d="M217.1,239.4c-2.2-3.1-5.2-2.8-8.2-1.9c-0.2,0.1,0,1.6,0,2.4"/>
	<path class="st0" d="M202.9,481.8c0.7,2.2,1.4,4.3,2,6.2c1.6,0.6,3.1,1.2,4.5,1.8"/>
	<path class="st0" d="M50.9,50.9c-0.3,2.3-0.7,4.7-1,7"/>
	<path class="st0" d="M180.9,412.8c3.6,4.3,3.6,8.3,0,10.5"/>
	<path class="st0" d="M38.4,133.9c-1.2,2.3-2.3,4.7-3.5,7"/>
	<path class="st0" d="M179.9,356.4c-0.5,1.5-1,3-1.5,4.5"/>
	<path class="st0" d="M236.4,433.8c1.7,2.3,3.3,4.7,5,7"/>
	<path class="st0" d="M170.4,61.9c-2.3,0-4.7,0-7,0"/>
	<path class="st0" d="M177.9,491.8c-1.6,3.7-1.3,7.3,0,11"/>
	<path class="st0" d="M195.9,463.8c0,4.1-3.6,2.4-5.5,3.5"/>
	<path class="st0" d="M231.4,374.9c-2.2-0.4-4.4-0.8-6.9-1.3c-0.3,0.5-0.7,1.4-1.1,2.3"/>
	<path class="st0" d="M101.4,61.9c-1,1.3-2.2,2.6-3,4c-0.7,1.3-1,2.8-1.5,4.2c-1.4-0.8-2.2-1.3-3.1-1.8"/>
	<path class="st0" d="M91.4,93.9c-2,2-4,3.9-6.5,6.4c0.2,0.8,0.6,2.4,1.1,4.3c-0.8,1.2-1.7,2.5-2.6,3.8"/>
	<path class="st0" d="M193.4,439.8c-0.7,1-1.4,2-2.2,3.2c0.7,1.1,1.5,2.2,2.2,3.3"/>
	<path class="st0" d="M19.9,95.9c-0.3,4-0.6,8-1,12.5c-1.6-0.4-2.6-0.7-3.5-1"/>
	<path class="st0" d="M195.4,454.8c0.3,2.6,0.7,5.3,1.1,8.8c-3.3-2-4.6-0.5-5.6,1.7"/>
	<path class="st0" d="M95.4,80.9c-0.9,2.6-5.4,3.6-3.5,7.5"/>
	<path class="st0" d="M171.9,403.8c1.6,6.1-1.8,11.4-3,17"/>
	<path class="st0" d="M273.4,367.9c0.2,2.2,0.3,4.3,0.5,6.5"/>
	<path class="st0" d="M87.4,42.9c-2.7-0.7-5.3-1.3-8-2"/>
	<path class="st0" d="M114.9,37.4c0.5,2.2,1,4.3,1.5,6.5"/>
	<path class="st0" d="M300.4,359.9c1.8,2.6-0.8,4-1.5,6"/>
	<path class="st0" d="M174.4,423.8c0,1.2-0.1,2.3,0,3.5c0.1,1,0.3,2,0.5,3"/>
	<path class="st0" d="M151.9,371.4c-3.6,0.6-4,6.2-8.5,5.5"/>
	<path class="st0" d="M89.4,88.9c-2.4-0.3-4.1,0.7-5,3"/>
	<path class="st0" d="M147.9,464.3c-0.7,2-1.3,4-2,6"/>
	<path class="st0" d="M240.4,85.9c-0.7-1.7-1.3-3.3-2-5"/>
	<path class="st0" d="M172.4,453.8c0,2,0,4,0,6"/>
	<path class="st0" d="M39.9,248.4c-2.5-0.2-4.5,0.3-4.5,3.5"/>
	<path class="st0" d="M89.9,77.9c-0.2,1.2,0,2.5-0.6,3.5c-0.7,1.3-1.9,2.4-2.9,3.5"/>
	<path class="st0" d="M29.4,216.4c2,0.2,4,0.3,6,0.5"/>
	<path class="st0" d="M227.4,482.8c1.2,1.8,2.3,3.7,3.5,5.5"/>
	<path class="st0" d="M90.4,33.9c1.7,1.7,3.3,3.3,5,5"/>
	<path class="st0" d="M288.4,382.8c1,1.7,2,3.3,3,5"/>
	<path class="st0" d="M223.4,468.8c-2.1-0.7-4.3-1.4-7-2.3c0-1.3,0-3,0-5.7c-1.1,0-2.3,0-3.5,0"/>
	<path class="st0" d="M165.4,483.8c0.2,2,0.3,4,0.5,6"/>
	<path class="st0" d="M208.9,455.8c0.9,3.7,3,6.4,6.5,8"/>
	<path class="st0" d="M52.4,79.9c0.3,3.3,1.9,3.7,4.5,2"/>
	<path class="st0" d="M181.4,429.8c0,2,0,4,0,6"/>
	<path class="st0" d="M172.9,492.8c-0.4,1.2-0.8,2.4-1.4,4.2c1,2.3,2.3,5.2,3.7,8.2c2.6-1.4,4.4-2.4,6.3-3.4"/>
	<path class="st0" d="M225.4,82.9c1.8,0.5,3.7,1,5.5,1.5"/>
	<path class="st0" d="M50.9,47.9c3.7,0.3,7.3,0.6,11.5,0.9c0,0.7,0,1.9,0,3.1"/>
	<path class="st0" d="M144.4,453.8c-0.5,1.8-1,3.7-1.5,5.5"/>
	<path class="st0" d="M32.9,101.4c-1.8-0.5-3.7-1-5.5-1.5"/>
	<path class="st0" d="M187.4,422.8c-1,0.7-1.9,1.5-3,1.9c-0.7,0.2-1.6-0.3-2.5-0.4"/>
	<path class="st0" d="M174.9,410.3c1,1.8,2,3.7,3,5.5"/>
	<path class="st0" d="M18.9,154.9c1.7-0.4,3.3,3.4,5,0"/>
	<path class="st0" d="M54.4,52.9c0.3,3.2,0.7,6.3,1,9.5"/>
	<path class="st0" d="M55.9,62.9c1,3.7,2,7.3,3,11"/>
	<path class="st0" d="M118.9,250.4c-1.8,0-3.7,0-5.5,0"/>
	<path class="st0" d="M286.9,394.3c-0.2,1-0.4,1.9-0.7,3.5c1.6-0.5,2.4-0.8,3.2-1"/>
	<path class="st0" d="M274.4,173.9c0.5,1.7,1,3.3,1.5,5"/>
	<path class="st0" d="M167.4,447.8c-1.1,2.7-3.3,5.2-2.5,8.5"/>
	<path class="st0" d="M32.9,93.9c1.3,1.2,2.7,2.3,4,3.5"/>
	<path class="st0" d="M73.9,78.9c0.5,1.8,1,3.7,1.5,5.5"/>
	<path class="st0" d="M176.4,430.8c-1.3,2.4-2.6,4.8-0.5,7.5"/>
	<path class="st0" d="M110.4,51.9c1.7,0.7,3.3,1.3,5,2"/>
	<path class="st0" d="M158.9,480.3c-0.9,1.3-1.7,2.6-2,3.1c0,4.1,0,7.2,0,10.4"/>
	<path class="st0" d="M147.4,350.4c-0.5,1.7-0.6,3.6-1.6,4.9c-2.3,3.3-4.9,6.4-7.4,9.5"/>
	<path class="st0" d="M66.9,96.4c-1.3,0.5-2.6,1.1-4,1.5c-1.6,0.5-3.3,0.9-5,1.3"/>
	<path class="st0" d="M213.9,487.3c0.2,1.8,0.3,3.7,0.5,5.5"/>
	<path class="st0" d="M101.9,58.4c0.5-0.7,0.9-1.4,1.4-2.1c0.4,0,0.9,0,1.3,0c0.1,2,0.2,4,0.3,6.1"/>
	<path class="st0" d="M38.4,96.9c0.2-1.3,0.5-2.7,0.5-4c0-1.7-0.2-3.4-0.5-5c-0.3-1.4-1-2.7-1.5-4"/>
	<path class="st0" d="M50.9,74.4c0,0.7,0,1.3,0,2c-0.2,0.1-0.3,0.1-0.5,0.2c-0.5-1.3-1-2.5-1.5-3.7c-0.6,0.2-1.1,0.4-1.6,0.5"/>
	<path class="st0" d="M81.9,111.9c-1.8-0.3-3.7-0.7-5.5-1"/>
	<path class="st0" d="M184.4,495.8c0.8-1.3,1.7-2.7,2.8-4.4c0.7,1.3,1.2,2.4,1.9,3.8c-0.8,0.7-1.8,1.4-2.8,2.2
		c-0.8-0.5-1.6-1.1-2.4-1.6"/>
	<path class="st0" d="M88.9,368.9c-0.5,5.1-1.7,6-6.2,5"/>
	<path class="st0" d="M254.4,109.9c1.3,1.3,2.7,2.7,4,4"/>
	<path class="st0" d="M94.4,72.9c-0.3,1.7-0.7,3.3-1,5"/>
	<path class="st0" d="M92.9,91.4c1.8-0.4,3.5-0.8,5.3-1.2c0.2,0.3,0.4,0.7,0.6,1c-3,4.4-5.9,8.8-8.9,13.2"/>
	<path class="st0" d="M71.4,28.9c1.7,0.7,3.3,1.3,5,2"/>
	<path class="st0" d="M106.9,66.4c-2,2.8-4,5.7-6,8.5"/>
	<path class="st0" d="M238.4,483.8c0.3,1.7,0.7,3.3,1,5"/>
	<path class="st0" d="M150.4,465.3c0,1.7,0,3.3,0,5"/>
	<path class="st0" d="M211.9,241.4c-0.7,0.4-1.3,0.7-2.4,1.3c0.6,0.7,1.2,1.5,1.9,2.2"/>
	<path class="st0" d="M162.4,380.3c3,0.9,6,1.7,8,4.5"/>
	<path class="st0" d="M220.4,83.9c1.5-0.3,3-0.6,4.9-1c-0.5-1.3-0.9-2.5-1.4-3.7c-0.5,0.1-1,0.2-1.6,0.4c0.2,1.1,0.4,2.2,0.6,3.3"/>
	<path class="st0" d="M247.4,447.8c0,1.7,0,3.3,0,5"/>
	<path class="st0" d="M33.4,80.4c1.2,1.2,2.3,2.3,3.5,3.5"/>
	<path class="st0" d="M121.4,68.9c-1.3-0.8-2.7-1.7-4-2.5"/>
	<path class="st0" d="M71.9,373.4c1.3,2.3,2.7,4.7,4,7"/>
	<path class="st0" d="M154.4,361.9c-0.2,1.7-0.5,3.3-0.7,5.2c-1.4,0.7-3.1,1.5-4.8,2.3"/>
	<path class="st0" d="M44.4,57.9c0,3,0,6,0,9"/>
	<path class="st0" d="M158.9,497.8c-0.7-1.4-1.4-2.8-2-4.1c-2.1,0.6-3.8,1.1-5.5,1.6"/>
	<path class="st0" d="M31.4,53.9c0.3,1.5,0.7,3,1,4.5"/>
	<path class="st0" d="M165.9,423.3c-0.5,1.5-1,3-1.7,5.1c-0.9-0.2-1.8-0.4-2.8-0.6"/>
	<path class="st0" d="M193.4,494.8c0,0.7,0,1.3,0,2"/>
	<path class="st0" d="M163.9,431.8c2.1,1.9,0.7,2.7-1,3.5"/>
	<path class="st0" d="M30.9,107.4c-3.4,2.6-2.3,4.9,0.5,7"/>
	<path class="st0" d="M63.4,137.9c-1.3,0.8-2.7,1.7-4,2.5"/>
	<path class="st0" d="M83.4,53.9c1.3,1.3,2.7,2.7,4,4"/>
	<path class="st0" d="M178.9,360.9c1.3,0.5,2.7,1,4,1.5"/>
	<path class="st0" d="M123.9,253.4c-1.3-0.5-2.6-1.1-4.9-1.9c-0.9,1.1-2,2.5-3.1,3.9"/>
	<path class="st0" d="M82.9,70.9c0,3,0,6,0,9"/>
	<path class="st0" d="M49.4,80.9c-1.2-1.2-2.3-2.3-3.5-3.5"/>
	<path class="st0" d="M110.9,76.4c-0.8,0-1.7,0-2,0c-1.9,1.5-3.7,3-5.5,4.5"/>
	<path class="st0" d="M188.9,434.3c-3.7,2.8-0.9,7.2-2.5,10.5"/>
	<path class="st0" d="M186.4,455.3c-1.4,0.8-2.7,1.5-4.4,2.5c0.7,1.1,1.3,2.1,1.9,3"/>
	<path class="st0" d="M220.4,486.8c1,1,2,2,3,3"/>
	<path class="st0" d="M150.9,481.3c1.2,1.9,1.5,5,5,3.5"/>
	<path class="st0" d="M286.4,403.8c0.7,1.3,1.3,2.7,2,4"/>
	<path class="st0" d="M236.4,62.9c1.3,0.3,2.7,0.7,4,1"/>
	<path class="st0" d="M88.9,372.9c0.7,0.3,1.3,0.7,1.9,1c1.3,2.6-5.4,2.6-1.9,6"/>
	<path class="st0" d="M197.9,491.3c-1.3,0.3-2.7,0.7-4,1"/>
	<path class="st0" d="M94.9,392.3c2-2.9,4,0.2,6,0"/>
	<path class="st0" d="M74.4,36.9c1.3,0.7,2.7,1.3,4,2"/>
	<path class="st0" d="M253.4,433.8c0.3,1.3,0.7,2.7,1,4"/>
	<path class="st0" d="M252.4,441.8c1.5,2.5,3,5,4.5,7.5"/>
	<path class="st0" d="M211.4,470.8c0.2,1.3,0.3,2.7,0.5,4"/>
	<path class="st0" d="M87.9,384.8c1.9-3,4.4-4.5,8.3-2.8c0,3-1.8,4.8-4.3,6.3"/>
	<path class="st0" d="M187.9,428.3c-1,1.3-2,2.7-3,4"/>
	<path class="st0" d="M207.4,362.9c0.3,1.3,0.7,2.7,1,4"/>
	<path class="st0" d="M53.9,109.4c-1.1-0.6-2.3-1.1-3.4-1.7c-0.6,1.4-1.1,2.5-1.6,3.7"/>
	<path class="st0" d="M251.4,450.8c0,1.3,0,2.7,0,4"/>
	<path class="st0" d="M138.9,475.3c-0.3,1.3-0.7,2.7-1,4"/>
	<path class="st0" d="M46.4,46.9c0,1.3,0,2.7,0,4"/>
	<path class="st0" d="M176.4,354.9c0.2,4-4.1,2.5-5.5,4.5"/>
	<path class="st0" d="M100.9,97.4c-0.7,1-1.4,2-2.2,3.1c1.4,1.3,2.8,2.6,4.2,3.9"/>
	<path class="st0" d="M191.4,433.8c0.3,1.3,0.7,2.7,1,4"/>
	<path class="st0" d="M188.9,455.8c0.2,1.2,0.4,2.3,0.6,3.9c-1.1,0.8-2.4,1.7-3.6,2.6"/>
	<path class="st0" d="M269.9,374.9c0.2,2.3,0.3,4.7,0.5,7"/>
	<path class="st0" d="M213.4,476.8c4.2,0.6,0.9,3.4,1.5,5"/>
	<path class="st0" d="M88.4,48.9c-0.8-0.5-1.7-1-2.5-1.5"/>
	<path class="st0" d="M282.4,414.8c0.3,1,0.7,2,1,3"/>
	<path class="st0" d="M139.9,459.8c-0.3,2.7-0.7,5.3-1,8"/>
	<path class="st0" d="M147.9,436.8c1.5,1,3,2,4.5,3c0,2,0,4,0,6"/>
	<path class="st0" d="M286.4,411.8c0.6,1,1.2,2.1,1.9,3.2c0.8-0.8,1.4-1.5,2.1-2.2"/>
	<path class="st0" d="M220.9,472.3c-0.2,1.2-0.3,2.3-0.5,3.5"/>
	<path class="st0" d="M186.4,436.8c-0.8,0.5-1.7,1-2.5,1.5"/>
	<path class="st0" d="M177.4,437.8c-0.7,3-3,2.1-5,2"/>
	<path class="st0" d="M40.9,82.9c-1.2,0.2-2.3,0.3-3.5,0.5"/>
	<path class="st0" d="M245.4,453.8c1,1.3,2,2.7,3,4"/>
	<path class="st0" d="M126.4,78.9c-1.2,0.2-2.3,0.3-3.5,0.5"/>
	<path class="st0" d="M288.9,359.4c-0.2,1.2-0.3,2.3-0.5,3.5"/>
	<path class="st0" d="M147.4,456.3c-1,2.2-2,4.3-3,6.5"/>
	<path class="st0" d="M61.9,70.4c-1.2,0.3-2.3,0.7-3.5,1"/>
	<path class="st0" d="M158.9,68.4c0.2,0.7,0.3,1.3,0.5,2c-0.5,0-1,0-1.5,0"/>
	<path class="st0" d="M268.4,118.9c-1-0.3-2-0.7-3-1"/>
	<path class="st0" d="M176.4,460.8c-0.5,1.2-1,2.3-1.5,3.5"/>
	<path class="st0" d="M245.4,437.8c1,1,2,2,3,3"/>
	<path class="st0" d="M267.4,398.8c-0.7,1-1.3,2-2,3"/>
	<path class="st0" d="M244.9,81.9c0.4,2,4.4,3.1,1.5,6"/>
	<path class="st0" d="M164.4,363.9c-1.6,2.1,0.1,5.9-3.5,7"/>
	<path class="st0" d="M196.4,363.9c0.3,1,0.6,2,1,3c0.6,1.4,1.3,2.7,2,4"/>
	<path class="st0" d="M226.4,462.8c0.3,1,0.7,2,1,3"/>
	<path class="st0" d="M213.4,72.9c0,1,0,2,0,3.2c1.3-0.5,2.2-0.9,3-1.2"/>
	<path class="st0" d="M281.4,431.8c-1.3,0.7-2.7,1.3-4,2"/>
	<path class="st0" d="M266.4,446.8c-2.1-2.4-4.7-2.3-7.5-1.5"/>
	<path class="st0" d="M171.4,444.8c0.3,1,0.7,2,1,3"/>
	<path class="st0" d="M185.9,492.8c-0.7-0.3-1.3-0.7-2.5-1.3c0,1.4,0,2.6,0,3.8"/>
	<path class="st0" d="M259.4,420.3c0.7,0.8,1.3,1.7,2,2.5"/>
	<path class="st0" d="M222.4,478.8c0,1,0,2,0,3"/>
	<path class="st0" d="M254.4,418.8c0.7,1,1.3,2,2,3"/>
	<path class="st0" d="M157.9,362.4c-2.3,2.4-0.6,3.5,1.5,4.5"/>
	<path class="st0" d="M205.4,498.3c-2.3,0-4.7,0-7,0"/>
	<path class="st0" d="M181.9,496.3c0,2,0,4,0,6.5c1.5,0,2.5,0,3.5,0"/>
	<path class="st0" d="M184.9,482.8c0.5,1.7,1,3.3,1.5,5"/>
	<path class="st0" d="M157.4,380.3c0.6,0.8,1.2,1.5,1.7,2.3c-0.1,0.4-0.2,0.9-0.4,1.3c-1.6-0.4-3.2-0.7-4.9-1.1c0.3-1,0.7-2,1-3"/>
	<path class="st0" d="M297.4,359.9c-0.2,0.8-0.3,1.7-0.5,2.5"/>
	<path class="st0" d="M265.9,404.3c0.5,0.8,1,1.7,1.5,2.5"/>
	<path class="st0" d="M276.4,407.8c0.7,0.7,1.3,1.3,2,2"/>
	<path class="st0" d="M73.9,414.3c-0.8-0.1-1.7-0.2-2.5-0.3"/>
	<path class="st0" d="M257.9,433.8c1.5-3.7,2.3-3.9,5.5-1"/>
	<path class="st0" d="M262.4,438.8c2.2-1.1,3.2-0.4,3,2"/>
	<path class="st0" d="M148.9,455.3c-0.3,1.3-0.7,2.7-1,4"/>
	<path class="st0" d="M234.4,461.8c0.8,0.3,1.7,0.7,2.5,1"/>
	<path class="st0" d="M122.9,50.4c-2.7,2.8-5.3,0.2-8.6,0c0.8-2.1-1.4-5.1,2.7-6"/>
	<path class="st0" d="M49.9,60.4c0.8,2.9,3.1,1.8,5,2"/>
	<path class="st0" d="M197.4,66.9c1.3,0.8,2.7,1.7,4,2.5"/>
	<path class="st0" d="M259.4,422.8c2,1,4,2,6,3"/>
	<path class="st0" d="M29.9,80.4c0.3,0.7,0.7,1.3,1,2"/>
	<path class="st0" d="M188.9,487.3c-1.7,0.7-3.3,1.3-5,2"/>
	<path class="st0" d="M145.4,75.9c-1.3,0-2.7,0-4,0"/>
	<path class="st0" d="M36.9,69.4c0.7,0,1.3,0,2,0"/>
	<path class="st0" d="M198.4,44.9c-0.7-0.3-1.3-0.7-2-1"/>
	<path class="st0" d="M230.4,90.9c0.7,0.2,1.3,0.3,2,0.5"/>
	<path class="st0" d="M238.4,473.8c0.3,0.7,0.7,1.3,1,2"/>
	<path class="st0" d="M41.9,77.4c0.7,0,1.3,0,2,0"/>
	<path class="st0" d="M62.9,71.4c-0.3,0.7-0.7,1.3-1,2"/>
	<path class="st0" d="M256.4,406.8c0.3,0.3,0.7,0.7,1,1"/>
	<path class="st0" d="M156.9,447.8c0.5,1,1,2,1.5,3"/>
	<path class="st0" d="M177.4,447.8c-0.2,0.5-0.3,1-0.5,1.5"/>
	<path class="st0" d="M135.4,332.9c0.3,0.3,0.7,0.7,1,1"/>
	<path class="st0" d="M253.4,455.8c0.3,0.3,0.7,0.7,1,1"/>
	<path class="st0" d="M203.4,461.8c-0.5,0.2-1,0.3-1.5,0.5"/>
	<path class="st0" d="M214.4,63.9c0.3,0.3,0.7,0.7,1,1"/>
	<path class="st0" d="M294.4,400.8c0.3,0.3,0.7,0.7,1,1"/>
	<path class="st0" d="M256.4,402.8c0.3,0.3,0.7,0.7,1,1"/>
	<path class="st0" d="M93.9,54.4c-0.5-0.2-1-0.3-1.5-0.5"/>
	<path class="st0" d="M204.4,45.9c0.3,0.3,0.7,0.7,1,1"/>
	<path class="st0" d="M51.4,151.9c-0.3,0.3-0.7,0.7-1,1"/>
	<path class="st0" d="M192.4,409.8c0.3,0.3,0.7,0.7,1,1"/>
	<path class="st0" d="M159.9,486.3c-0.2,0.3-0.4,0.7-0.5,1c0,0.1,0.3,0.3,0.5,0.5"/>
	<path class="st0" d="M271.4,412.8c0.3,0.3,0.7,0.7,1,1"/>
	<path class="st0" d="M296.4,416.8c0.3,0.3,0.7,0.7,1,1"/>
	<path class="st0" d="M286.4,418.8c-0.3,0.3-0.7,0.7-1,1"/>
	<path class="st0" d="M217.4,362.9c0.3,0.3,0.7,0.7,1,1"/>
	<path class="st0" d="M291.4,422.8c0.3,0.3,0.7,0.7,1,1"/>
	<path class="st0" d="M189.4,425.8c-0.2,0.5-0.3,1-0.5,1.5"/>
	<path class="st0" d="M244.4,433.8c0.3,0.3,0.7,0.7,1,1"/>
	<path class="st0" d="M103.4,91.9c-0.3,0.3-0.7,0.7-1,1"/>
	<path class="st0" d="M145.9,440.3c0.3,0.5,0.7,1,1,1.5"/>
	<path class="st0" d="M256.4,441.8c0.3,0.3,0.7,0.7,1,1"/>
	<path class="st0" d="M164.4,444.8c0.3,0.3,0.7,0.7,1,1"/>
</g>
<g id="Layer_4">
	<path class="st0" d="M188.4,87.4c7.4,6.1,8.7,15,11,23.5"/>
	<path class="st0" d="M292.9,245.4c4.1,4.2,3.4,9.9,4.5,15c0.3,1.5,0.8,3,1.4,5.3c-0.8,2.2-1.9,5.2-2.9,8.2"/>
	<path class="st0" d="M164.9,118.1c-0.7-0.1-1.3-0.2-2-0.2"/>
	<path class="st0" d="M202.4,342.4c0.7-0.5,1.3-1,2.3-1.7c0.6,0.9,1.2,1.8,1.7,2.7"/>
	<path class="st0" d="M256.4,359.9c-1.5,0.4-3.1,0.8-4.3,1.1c-1.7,4.2-1.7,7.6,1.8,10.4"/>
	<path class="st0" d="M256.4,347.9c-0.2-1.2-0.5-2.4-0.8-4.2c-4.8,3.1-1.2,6-1.2,8.7"/>
	<path class="st0" d="M166.9,129.9c1,2.7,2.1,5.3,3,8c0.4,1.4,0.4,3,0.5,4.5"/>
	<path class="st0" d="M216.9,333.4c-0.5,0.8-1.6,2.1-1.4,2.4c2.6,3.6,1.1,7.1-0.1,10.6"/>
	<path class="st0" d="M182.4,98.9c-2.9-0.9-5.7-0.8-7.5,1.5c-1.7-1.5-3.1-2.7-4.5-4"/>
	<path class="st0" d="M296.9,286.9c1.4-3.3,3.9-6.7,0-10"/>
	<path class="st0" d="M237.4,234.4c-0.8,6.1-5.7,8-10.5,10c-1,0.4-2,0.7-3,1"/>
	<path class="st0" d="M171.4,87.9c1.3,0.5,2.7,1.5,4,1.4c6.4-0.2,9.8,4.7,13.9,8.2c0.7,0.6,0.1,2.6,0.1,3.9"/>
	<path class="st0" d="M254.4,129.9c0.3,4,0.7,8,1,12"/>
	<path class="st0" d="M289.4,196.9c1.7,1.2,3.5,2.5,5.6,4c-1.1,2.5-2.1,4.8-3.1,7"/>
	<path class="st0" d="M222.4,333.9c-0.3,2.2,0,4.8-1.2,6.4c-1.7,2.4-0.4,4.4-0.3,6.6"/>
	<path class="st0" d="M284.9,299.4c-1.4,0.4-2.7,0.8-4.3,1.3c0.8,1.9,1.6,3.5,2.3,5.2"/>
	<path class="st0" d="M300.9,314.9c1.6,2.9-1.1,2.7-2.5,3.5"/>
	<path class="st0" d="M190.4,189.9c0.5,1.7,1,3.3,1.5,5"/>
	<path class="st0" d="M287.9,197.4c-0.3,3.5-0.7,7-1,10.5"/>
	<path class="st0" d="M274.4,320.4c-0.9,1.6-1.8,3.1-2.5,4.4c0,2.1,0,4.1,0,6.1"/>
	<path class="st0" d="M258.9,470.3c2.1,3.2,3.8,6.5,2,10.5"/>
	<path class="st0" d="M264.4,474.8c2.5-3.3,0-4.4-2.5-5.5c-1.1-0.5-2.3-0.7-3.5-1"/>
	<path class="st0" d="M276.9,446.8c1,2.9,1.5,6.2,5.5,6.5"/>
	<path class="st0" d="M212.4,322.4c-4.7,1.3-9.3,2.7-14,4"/>
	<path class="st0" d="M178.4,183.4c1.3,1.7,3,3.2,3.9,5c0.7,1.4,0.4,3.3,0.6,4.9"/>
	<path class="st0" d="M180.4,196.4c-3.2,0.2-6.3,0.3-9.5,0.5"/>
	<path class="st0" d="M229.4,221.9c0.7,3.2,1.3,6.3,2,9.5"/>
	<path class="st0" d="M178.4,133.9c4.8,4.4,1.5,9.6,1.5,14.5c0,0.5-0.3,1-0.5,1.5"/>
	<path class="st0" d="M278.9,316.9c-0.5-0.8-1.1-1.6-2.2-3.2c2.2-0.5,3.9-0.9,5.7-1.3"/>
	<path class="st0" d="M173.9,89.9c1.8,2.7,3.7,5.3,5.5,8"/>
	<path class="st0" d="M252.9,355.4c-4,2.2-6.7,5.6-9,9.5"/>
	<path class="st0" d="M212.9,258.9c-0.1,4.1,3.2,5.1,6,6.5"/>
	<path class="st0" d="M249.9,480.3c-2.8,3.2-5.7,0.3-8.5,0"/>
	<path class="st0" d="M286.9,436.8c1.1,2.7,3.3,5.5-1,7.5"/>
	<path class="st0" d="M289.6,248.4c1,3.8-1.3,8,1.7,11.5"/>
	<path class="st0" d="M224.9,248.4c0,1.8,0,3.7,0,5.5"/>
	<path class="st0" d="M218.9,386.8c1.3,2.2,2.7,4.3,4,6.5"/>
	<path class="st0" d="M180.1,157.4c0.1,0.7,0.2,1.3,0.2,2"/>
	<path class="st0" d="M237.9,213.9c-1.1,0.8-2.2,1.6-3.5,2.6c-0.1,0.6-0.3,1.7-0.5,2.9"/>
	<path class="st0" d="M272.4,319.4c3,0.7,6,1.3,9,2"/>
	<path class="st0" d="M180.4,163.4c2.3,1.2,4.7,2.3,7,3.5"/>
	<path class="st0" d="M274.4,323.4c2,0.7,4,1.3,6,2"/>
	<path class="st0" d="M170.9,121.4c-1.8,2.4-2.3,4.9-0.5,7.5"/>
	<path class="st0" d="M169.9,502.8c-0.2,2-0.3,4-0.5,6"/>
	<path class="st0" d="M230.4,348.9c-0.5,2.2-1,4.3-1.5,6.5"/>
	<path class="st0" d="M287.9,188.9c0,2.2,0,4.3,0,6.5"/>
	<path class="st0" d="M194.4,83.4c-2.2,0.3-4.3,0.7-6.5,1"/>
	<path class="st0" d="M165.4,300.4c-2,0.3-4,0.7-6,1"/>
	<path class="st0" d="M200.9,203.1c-2.7,1.9-1.4,4.1-0.5,6.2"/>
	<path class="st0" d="M261.9,341.4c-1.2,2-2.3,4-3.5,6"/>
	<path class="st0" d="M270.9,325.9c-1.3,0.3-2.7,0.6-3.7,0.9c-0.9,1.5-1.6,2.8-2.3,4.1"/>
	<path class="st0" d="M211.9,83.9c-0.8,1.8-1.7,3.7-2.5,5.5"/>
	<path class="st0" d="M197.4,82.4c2.2,1.7,4.3,3.3,6.5,5"/>
	<path class="st0" d="M254.9,349.4c0.6-0.5,1.3-1,2.3-1.8c0.6,1.9,1.2,3.6,1.7,5.3"/>
	<path class="st0" d="M179.9,184.4c1.9,0.2,4.2-0.9,5,2"/>
	<path class="st0" d="M298.9,268.4c1.2,1.5,2.3,3,3.5,4.5"/>
	<path class="st0" d="M292.9,222.4c1.2,2.2,2.3,4.3,3.5,6.5"/>
	<path class="st0" d="M174.4,207.9c-1.5,0.5-3,1-4.5,1.5"/>
	<path class="st0" d="M212.9,299.9c-1,0.8-2,1.7-3,2.5"/>
	<path class="st0" d="M293.4,267.9c1.2,0,2.3,0,3.5,0"/>
	<path class="st0" d="M228.9,322.9c-0.4-0.7-0.7-1.5-1.2-2.4c-1.5,0.8-2.7,1.3-3.8,1.9"/>
	<path class="st0" d="M168.9,205.4c2.2-0.3,4-4.4,6.5-0.5"/>
	<path class="st0" d="M221.4,385.8c0.5,0.5,1,1,1.5,1.5"/>
	<path class="st0" d="M278.4,294.9c0.3,0.3,0.7,0.7,1,1"/>
	<path class="st0" d="M259.4,304.9c-0.3,0.3-0.7,0.7-1,1"/>
	<path class="st0" d="M167.4,302.9c-0.2,0.5-0.3,1-0.5,1.5"/>
</g>
<g id="Layer_2_1_">
	<path class="st0" d="M46.4,286.9c1.2,4.7,2.3,9.3,3.5,14"/>
	<path class="st0" d="M91.4,15.9c6.5,2.2,10.9,7.5,16.5,11c3.6,2.3,3.7,5.8,2.5,9.5"/>
	<path class="st0" d="M273.4,129.9c1.3,0.3,2.7,0.6,4,1c1.9,0.6,3.7,1.3,5.5,2"/>
	<path class="st0" d="M89.4,79.9c-1,3-2,6-3,9"/>
	<path class="st0" d="M74.9,22.4c1.3,3.9,4,6.2,8,6.4c5.2,0.3,8.8,2.3,10.6,7.5c0.5,1.5,2.7,2.3,3.8,3.6c0.9,1,1.3,2.4,2.4,4.6
		c-6.6-1.6-11.7-2.9-16.8-4.2"/>
	<path class="st0" d="M53.4,160.9c-3,0.3-6,0.7-9,1"/>
	<path class="st0" d="M114.9,85.9c-2.8,0.8-3.7,2.8-3.5,5.5"/>
	<path class="st0" d="M88.4,95.9c0,0.5,0,1,0,1.5"/>
	<path class="st0" d="M210.9,457.3c-2.3-2.3-4.8-4.6-7-7c-2.4-2.6-3.9-1.9-5.2,0.8c1.1,3.1,2.1,5.9,3.1,8.7"/>
	<path class="st0" d="M201.6,466.3c-0.2,4.8,3.3,9.9-0.7,14.5"/>
	<path class="st0" d="M60.4,340.4c1.5-0.5,3.1-1,5-1.7c-0.9-2.4-1.7-4.4-2.6-6.9c-2.1,0.2-4.3,0.4-6.4,0.6"/>
	<path class="st0" d="M120.4,244.4c-3,0.9-6.7,0-9,3"/>
	<path class="st0" d="M236.4,92.4c0.6,4.3,3.6,6.1,7.7,7.3c0.4-1.6,0.7-2.9,0.9-4c-2.2-2.6-4.2-5-6.1-7.3"/>
	<path class="st0" d="M173.9,70.6c-1.5-0.1-3-0.2-4.5-0.2"/>
	<path class="st0" d="M150.4,69.9c-3.8,0.7-7.7,1.3-12.7,2.2c0.6,2,1.2,3.9,1.7,5.8"/>
	<path class="st0" d="M171.9,342.4c-2.3,0.5-4.7,1-7,1.5"/>
	<path class="st0" d="M245.9,68.9c1.5,3.6,5.8,6.2,4,11"/>
	<path class="st0" d="M91.4,24.9c-5.8-3.9-12.6-2.9-19-3.3c-2.1-0.1-4.3,1.8-6.5,2.8"/>
	<path class="st0" d="M234.4,431.8c2.8,4.3,6,8.5,8.4,13.1c1,1.9,0.5,4.6,0.6,6.9"/>
	<path class="st0" d="M275.9,157.4c3.8,3.9,2.4,8.2,1,12.5"/>
	<path class="st0" d="M137.9,347.4c0.2,1.5,0.3,3,0.5,4.5"/>
	<path class="st0" d="M199.4,324.9c-4.7,1.7-9.3,3.3-14,5"/>
	<path class="st0" d="M55.9,165.9c-4.3,4.2-8.7,8.3-13,12.5"/>
	<path class="st0" d="M168.4,37.4c-0.2-0.2-0.3-0.5-0.5-0.5c-4.5-0.4-9-0.7-13.5-1"/>
	<path class="st0" d="M51.9,335.9c-0.7,1.8-1.3,3.7-2.2,6.1c1.8,0.3,3.5,0.6,5.2,0.9"/>
	<path class="st0" d="M186.4,40.9c2.7,0.5,4.1,4.1,8.2,2.4c1.6-0.7,5.9,1.5,5.8,5.6c-0.7,0-1.3,0-2,0"/>
	<path class="st0" d="M175.4,402.8c0-2.5,0-5,0-8.2c-2.8-1.1-5.9-0.1-9,1.2"/>
	<path class="st0" d="M45.4,78.9c2,0.5,4,1,6,1.5"/>
	<path class="st0" d="M262.4,389.8c-0.8,2.7-1.9,5.3-2.4,8c-0.3,1.6,0.2,3.3,0.4,5"/>
	<path class="st0" d="M88.4,50.4c4.6-1.3,7.5,1.2,10,4.5"/>
	<path class="st0" d="M66.9,51.4c0.2,1.3,0.4,2.6,0.8,4.9c-2.8,0.2-5.3,0.4-7.8,0.6"/>
	<path class="st0" d="M234.4,414.8c0.5,2.2,0.9,4.4,1.5,6.5c0.5,1.7,1.3,3.3,2,5"/>
	<path class="st0" d="M162.4,463.8c-0.8,2.2-1.7,4.3-2.5,6.5"/>
	<path class="st0" d="M272.9,364.9c-2.8-0.5-3.8,1.1-4,3.5c-0.1,1.3-0.1,2.7-0.2,4.5c0.5,0.7,1.4,1.8,2.2,2.9"/>
	<path class="st0" d="M46.9,153.9c-1.8-0.8-3.7-1.7-5.5-2.5"/>
	<path class="st0" d="M67.9,25.4c1.8,4.9,7.3,4.2,10.5,6.9c2,1.7,4.1,3,4,6.1"/>
	<path class="st0" d="M195.9,423.8c-1.8,2.5-3.6,5.1-5.4,7.7c0.1,0.6,0.3,1.4,0.4,2.3"/>
	<path class="st0" d="M273.4,359.9c1.5,7.4,1.3,14.6-4.2,20.3c2.5,2.7,4.3,4.7,6.2,6.7"/>
	<path class="st0" d="M133.4,63.9c-4.7,2.4-9.4,4.8-15.1,7.7c-1-0.7-2.7-2-4.4-3.2"/>
	<path class="st0" d="M294.4,393.3c0.1,2.2,0.2,4.3,0.4,7.5c-2,3.3-6.1,3.5-10.6,2.9c0.3-2.2,0.5-4.6,0.8-6.8c2.1,0,3.3,0,4.4,0"/>
	<path class="st0" d="M53.9,352.4c-1.2,3.8,1.2,9.7,4.5,11.5c1.3,0.7,2.7,1.3,4,2"/>
	<path class="st0" d="M185.4,440.3c-3.5,1.5-6.7,3.3-7.5,7.2c1.4,1.9,2.7,3.6,4,5.3"/>
	<path class="st0" d="M97.9,81.9c0,3,0.3,6-0.1,9c-0.7,4.8-4.1,7.9-7.9,10.5"/>
	<path class="st0" d="M189.9,414.3c-0.2-1.6-0.4-3.3-0.7-5.6c7.2,3.6,7.4,4.5,3.9,11.4c-2-0.2-4.3-0.8-6.6-0.6
		c-1.5,0.1-3,1.2-4.5,1.9"/>
	<path class="st0" d="M183.4,402.8c0,1.5-0.1,3,0,4.5c0.2,2.2,0.6,4.3,1,6.5"/>
	<path class="st0" d="M239.9,68.9c0.2-1.7,0.4-3.3,0.6-5.4c-1.9,0.6-3,1-4.1,1.4"/>
	<path class="st0" d="M152.9,50.6c-4.2-4.1-8.3-0.5-12.5,0.2c-0.9,0.2-2-0.3-3-0.5"/>
	<path class="st0" d="M107.9,77.9c0.6,1.1,1.2,2.2,2,3.7c-3.5,2.5-6.7,4.9-10,7.3"/>
	<path class="st0" d="M165.9,370.9c-0.3,3.7-0.7,7.3-1,11"/>
	<path class="st0" d="M246.9,441.3c0.2,4.2,0.3,8.3,0.5,12.5"/>
	<path class="st0" d="M235.4,365.9c0.3,3.8,0.5,7.6,0.9,12.1c0.6,0.4,2.1,1.4,3.6,2.4"/>
	<path class="st0" d="M207.9,237.9c-3-2.3-5.6-1.6-8,1"/>
	<path class="st0" d="M146.4,41.9c2.5,0.8,5,1.9,7.5,2.4c1.7,0.3,3.6-0.2,5.5-0.4"/>
	<path class="st0" d="M101.6,72.4c-1.2,2.4-4.3,4.2-1.9,7.6c-3.5,1.6-7.6,2.2-7.9,6.9c0,0.8-0.3,1.8,0,2.5c1.2,2.9-0.1,4.7-2.5,6"/>
	<path class="st0" d="M197.9,243.4c3.5,3.2,7,2.6,10.5,0"/>
	<path class="st0" d="M188.4,396.8c0.3,2,0.5,4,1.1,6c0.3,1.1,1.3,2,1.9,3"/>
	<path class="st0" d="M295.4,317.9c-0.5,1.3-1.7,2.8-1.4,4c1.3,5.2,3,10.3,4.4,14.9c-1.4,2.6-2.5,4.6-3.7,6.9
		c-0.6-0.5-1.7-1.4-2.8-2.3"/>
	<path class="st0" d="M167.4,54.4c2.7,1.3,5.8,4.3,7.9,3.7c4.3-1.3,5.6,1.9,8.1,3.3"/>
	<path class="st0" d="M239.4,233.9c-3.3,0.2-6.7,0.3-10,0.5"/>
	<path class="st0" d="M183.4,350.9c0.5-0.4,0.9-0.8,1.2-1c0.4,4,0.9,8,1.3,12"/>
	<path class="st0" d="M231.9,441.3c0.6,3.4,0.4,7,3.5,9.5"/>
	<path class="st0" d="M48.9,39.4c-0.9-1.1-1.7-2.3-2.6-3.4c2.4-4.2,2.7-4.2,7.1-0.6"/>
	<path class="st0" d="M92.4,46.9c2.5,0.6,5,1.2,7.4,1.8c1.2-0.6,2.4-1.2,3.6-1.8"/>
	<path class="st0" d="M167.4,53.4c2.5-4.6,1.2-6.6-5-7.5"/>
	<path class="st0" d="M211.4,54.9c-2.2-2.8-2.6-7-6.5-8.5c-1.6-0.6-3.3-0.7-5-1"/>
	<path class="st0" d="M86.9,100.4c-2.8,0-5.7,0-8.5,0"/>
	<path class="st0" d="M122.4,57.4c4.4,3.5,9.7,1.4,14.5,2c0.5,0.1,1,0.3,1.5,0.5"/>
	<path class="st0" d="M133.4,72.9c-2.7,1.5-5.3,3-8,4.5"/>
	<path class="st0" d="M103.9,26.4c0,1.2-0.3,2.5,0.1,3.5c0.7,1.8,1.9,3.4,2.9,5"/>
	<path class="st0" d="M244.4,434.8c2,2.8,4,5.7,6,8.5"/>
	<path class="st0" d="M286.4,368.4c-1.1,3.3-0.8,6,1.3,9.2c1.5,2.2,0.8,5.9,1.1,9.8c0,0-0.9,0.5-1.9,1c0.4,0.4,0.1,0.2,0,0
		c-0.2-0.5-0.3-1-0.5-1.5"/>
	<path class="st0" d="M90.9,88.9c-2,0.2-4,0.5-5.3,0.6c-2.1,2.4-3.9,4.4-5.7,6.3"/>
	<path class="st0" d="M285.4,419.3c0.1,1.3,0.1,2.7,0.2,5c-1.4,0-3.1,0-4.7,0"/>
	<path class="st0" d="M253.4,394.8c1.7,3.7,3.4,7.3,4.9,11c0.1,0.2-1.2,1-1.9,1.5"/>
	<path class="st0" d="M258.4,431.3c-1.1,2.4-2.1,4.8-3.5,7.8c1.2,1.6,2.9,3.6,4.5,5.7"/>
	<path class="st0" d="M147.9,64.4c-3,0.8-6,1.7-9,2.5"/>
	<path class="st0" d="M279.4,391.3c-3.5,1.5-3.2,3.8-1.5,6.5c1,1.5,2,3,3,4.5"/>
	<path class="st0" d="M50.9,342.9c0.9,3.1,1.8,6.2,2.6,9.3c0.4-0.3,0.8-0.5,1.1-0.8c2.2,1.2,4.5,2.4,6.7,3.6"/>
	<path class="st0" d="M293.9,344.4c-2.6,4.4-5.6,8.8-1.5,14"/>
	<path class="st0" d="M38.4,180.4c-2.3,0-4.7,0-7,0"/>
	<path class="st0" d="M259.9,119.4c-0.3,1-1.2,2.2-0.9,3c0.9,2,2.2,3.7,3.4,5.5"/>
	<path class="st0" d="M267.4,101.4c-2.7,0.5-5.3,1-8,1.5"/>
	<path class="st0" d="M59.4,344.4c0,2.8,0,5.7,0,8.5"/>
	<path class="st0" d="M292.4,149.9c-2.3-1.8-4.7-3.7-7-5.5"/>
	<path class="st0" d="M66.4,33.4c-0.7,0.7-1.8,1.3-1.9,2c-0.3,1.6-0.1,3.3-0.1,5"/>
	<path class="st0" d="M88.4,51.9c2.2,1.8,4.3,3.7,6.5,5.5"/>
	<path class="st0" d="M59.9,358.4c-0.2,1.8-0.3,3.7-0.5,5.5"/>
	<path class="st0" d="M175.4,358.4c-2.3,1-4.6,1.9-6.9,2.9c1.1,2.9,1.8,4.8,2.4,6.6"/>
	<path class="st0" d="M46.9,70.9c-2.5-0.8-5-1.7-7.5-2.5"/>
	<path class="st0" d="M170.4,467.3c-0.2,2.6,0.7,4.2,3.5,4.5c2.2,0.3,4.3,1,6.5,1.5"/>
	<path class="st0" d="M115.9,59.1c0.8-0.2,1.7-0.5,2.5-0.7"/>
	<path class="st0" d="M209.9,441.8c1,4.7,2,9.3,3,14"/>
	<path class="st0" d="M221.9,466.8c3.8,6.8,3.8,6.8,1,10.5"/>
	<path class="st0" d="M129.4,39.9c0.2,2.5,0.3,5,0.5,7.5"/>
	<path class="st0" d="M298.4,338.9c1.5,0.5,3,1,4.9,1.7c-0.1,1-0.3,2.2-0.4,3.3"/>
	<path class="st0" d="M223.4,424.8c1.5,2.5,1.1,6.1,4.5,7.5"/>
	<path class="st0" d="M221.4,375.9c4.5,0.2,9,0.3,13.5,0.5"/>
	<path class="st0" d="M164.4,434.3c-0.6,2.2-1.2,4.4-1.9,6.8c1.5,1.9,3.2,4,4.7,5.8c-0.3,3.3-0.5,6.3-0.7,9.3"/>
	<path class="st0" d="M77.9,43.9c0.5,2.9,1,5.7,1.5,8.6c0.1,0,0.2,0,0.3,0c0.2,2,0.5,3.9,0.7,5.9"/>
	<path class="st0" d="M296.9,354.4c-0.7,1.8-1.3,3.7-2,5.5"/>
	<path class="st0" d="M299.4,365.4c1,3.5,4.1,5.6,6,8.5"/>
	<path class="st0" d="M297.4,417.3c0.3,0.5,0.6,1,1.3,2.2c-5-0.3-9.7-0.6-15.3-1c0.2-2.9,0-5.7,0.6-8.2c0.6-2.3,0.7-4.3-1.1-6"/>
	<path class="st0" d="M251.4,443.8c0.7,1,1.3,2,2,3c1,1.4,2,2.7,3,4"/>
	<path class="st0" d="M285.9,424.8c1.9,2.1,0.3,6.4,4.5,7"/>
	<path class="st0" d="M305.4,356.9c-2.7,0.5-5.3,1-8,1.5"/>
	<path class="st0" d="M188.9,422.3c-2.7,0.8-5.3,1.7-8,2.5"/>
	<path class="st0" d="M171.9,62.9c-0.7-0.5-1.4-1.5-2-1.4c-4.5,0.4-9,0.9-13.5,1.4"/>
	<path class="st0" d="M204.9,355.9c-0.5,2.7-1,5.3-1.5,8"/>
	<path class="st0" d="M194.4,58.9c4.6,1.9,9.1,3.7,14,5.8c-1,1.8-1.8,3.3-2.5,4.7"/>
	<path class="st0" d="M205.4,438.3c-1,2.5-2,5-3,7.5c-0.3,0.8-0.4,1.7-0.5,2.5"/>
	<path class="st0" d="M270.4,431.8c-1.5,1.8-3.1,3.5-4.4,5c-5.3-5.2-9.7-9.6-14.1-14"/>
	<path class="st0" d="M224.9,460.3c1.3,2.7,2.7,5.3,4,8"/>
	<path class="st0" d="M161.9,401.3c-0.5,2.7-1,5.3-1.5,8"/>
	<path class="st0" d="M276.4,414.3c1.3-0.9,2.5-1.8,3.5-2.5c-2.6-7.1-8.1-7.1-13-8"/>
	<path class="st0" d="M55.9,64.4c-2.5,0.4-5.1,0.8-7.9,1.3c0.8,2,1.3,3.4,1.9,4.7"/>
	<path class="st0" d="M208.4,65.4c2-0.3,4-0.6,6-0.9c0.3-0.3,0.5-0.6,0.8-0.9c0.9,1.3,1.8,2.5,2.7,3.8"/>
	<path class="st0" d="M297.4,405.8c-3.9,1-7.9,1.6-9.1,6.4c3,1.5,5.8,2.9,9.2,4.6c0.3-0.6,0.9-1.6,1.3-2.5c-0.8-0.6-2.1-1.6-3.4-2.6
		"/>
	<path class="st0" d="M179.9,351.9c0.6,1.1,1.1,2.3,1.7,3.3c-1,1.5-1.8,2.8-2.7,4.2"/>
	<path class="st0" d="M185.9,460.8c-2.5-0.3-5-0.7-7.5-1"/>
	<path class="st0" d="M217.4,373.4c0.5-4.7,0.5-4.7-5.2-5c0.6,2.8,1.2,5.4,1.7,8"/>
	<path class="st0" d="M83.4,17.9c-2.5,0.5-5,1-7.5,1.5"/>
	<path class="st0" d="M112.9,74.9c-2.5,1.2-5,2.4-7.5,3.5c-1.8,0.7-3.7,1-5.5,1.5"/>
	<path class="st0" d="M183.9,244.4c2.7,1,5.3,2,8,3"/>
	<path class="st0" d="M276.9,122.4c1.1,2.7,2.3,5.3,6,3.2"/>
	<path class="st0" d="M305.9,374.9c1.7,3.1,1.4,5.3-2.5,6"/>
	<path class="st0" d="M179.4,405.8c0.2,2.3,0.3,4.6,0.5,7.4c0.7,0.4,1.8,1,3,1.6"/>
	<path class="st0" d="M235.4,481.8c2.5,2.5,5.4,4.9,3,9"/>
	<path class="st0" d="M278.4,368.9c0.2,2.9,5,4.3,2.5,8"/>
	<path class="st0" d="M186.9,446.8c-0.5,2.5-1,5-1.5,7.5"/>
	<path class="st0" d="M159.9,348.4c0,2.5,0,5,0,7.5"/>
	<path class="st0" d="M57.9,26.9c-0.5-1.1-1-2.2-1.6-3.4c-2.5,1.5-3.7,3-2.4,5.4"/>
	<path class="st0" d="M221.4,361.9c1.1,1.7,2.2,3.5,2.7,4.4c0.3,2.8,0.5,5,0.8,7.1"/>
	<path class="st0" d="M38.4,174.4c-2-0.3-4-0.7-6-1"/>
	<path class="st0" d="M155.4,39.9c-3.6-1.2-7.2-2.4-11.5-3.8c1,2.5,1.6,4.1,2.3,5.8c-1.7,1.2-3.2,2.4-4.8,3.5"/>
	<path class="st0" d="M189.9,445.8c-0.3,2.3-0.7,4.7-1,7"/>
	<path class="st0" d="M61.4,112.9c0.9,4.2,0.8,4.5-1.5,5.5"/>
	<path class="st0" d="M231.9,479.8c-0.2,0.8-0.2,1.7-0.5,2.5c-1.8,4.6-1.6,5.2,3,7.5"/>
	<path class="st0" d="M196.4,443.8c-0.7,1.3-1.3,2.7-1.9,3.8c0.3,4.4,0.6,8.5,0.9,12.7"/>
	<path class="st0" d="M295.4,381.3c2.4-1,4.7-1.6,6.5,1.1c-0.5,1.2-1,2.5-1.5,3.8c2.3,2.4,4,2.4,5.1-0.9"/>
	<path class="st0" d="M173.9,440.8c-0.3,3.8-0.8,7.4-6,7"/>
	<path class="st0" d="M111.4,43.4c-4.3,1.8-7.9-0.1-11.5-2"/>
	<path class="st0" d="M108.4,91.4c-2,0-4,0-6.9,0c0.5,2.9,1,5.2,1.4,7.5"/>
	<path class="st0" d="M278.9,374.9c1.1,2.1,2.1,4.3,3.4,6.7c-4.3,3-1.9,6.1-0.4,9.3"/>
	<path class="st0" d="M126.9,276.9c0.2,2,0.3,4,0.5,6"/>
	<path class="st0" d="M271.9,123.4c1.3-0.7,2.7-1.3,4-2c1.2-0.7,3.5-2,3.3-2.4c-0.5-1.7-1.6-3.3-2.9-4.5c-1.2-1-3.1-1.2-4.4-2.1
		c-4.2-3.1-4.4-4.2-2.1-8.9c-0.7-0.4-1.3-0.7-2-1.1"/>
	<path class="st0" d="M169.4,51.9c3.3,0.7,6.7,1.3,10,2"/>
	<path class="st0" d="M306.9,369.9c-0.8-3.4-1.6-6.8-2.6-10.6c-1.7,0.9-2.8,1.5-3.9,2.1"/>
	<path class="st0" d="M89.4,146.4c-2-0.3-4-0.7-6-1"/>
	<path class="st0" d="M50.4,32.4c2.8-2.1,5.6-4.2,8.6-6.4c1.6,2.7,2.8,4.6,3.9,6.4"/>
	<path class="st0" d="M164.9,62.9c0,2.2,0,4.3,0,6.5"/>
	<path class="st0" d="M232.4,452.8c1.7,1.3,3.3,2.7,5,4"/>
	<path class="st0" d="M262.4,412.8c1.6,2.9,3.2,5.8,5.1,9.4c1.2-2.8,2-4.8,2.9-6.9"/>
	<path class="st0" d="M266.4,455.8c1,2,2,4,3,6"/>
	<path class="st0" d="M125.9,65.4c-2.3-1.6-4.1-1.7-5,1.5"/>
	<path class="st0" d="M230.4,474.8c-1.4-1.2-2.8-2.5-4.6-4c-1.1,0.4-2.7,0.9-4.4,1.5"/>
	<path class="st0" d="M108.9,49.9c2.2,4.2,3.4,4.5,6,1.5"/>
	<path class="st0" d="M156.9,393.8c-2.2,0.7-4.3,1.3-6.5,2"/>
	<path class="st0" d="M211.4,495.3c0.8,0.4,1.6,0.7,2.4,1.1c-0.4,0.7-0.8,1.4-1.3,2.1c-1.4-0.4-2.8-0.8-4.2-1.2"/>
	<path class="st0" d="M293.4,305.9c1,2,2,4,3,6"/>
	<path class="st0" d="M288.9,166.9c-0.2,3.2,1.1,6.8-2.5,9"/>
	<path class="st0" d="M207.9,355.9c-0.3,2-0.7,4-1,6"/>
	<path class="st0" d="M251.9,442.8c0.3-1.9,2.1-4.3-1.5-5"/>
	<path class="st0" d="M294.9,360.9c-2.2,0-4.3,0-6.5,0c-0.3,5.9-0.3,5.9-6,7.6c1.1,0.9,2.1,1.6,3,2.4"/>
	<path class="st0" d="M139.4,242.4c-2-0.2-4-0.3-6-0.5"/>
	<path class="st0" d="M263.4,128.4c3,3.5,6,7,9,10.5"/>
	<path class="st0" d="M243.4,424.8c0.8,2,1.7,4,2.5,6"/>
	<path class="st0" d="M120.9,89.4c-1.3,1.7-2.7,3.3-4,5"/>
	<path class="st0" d="M265.4,392.8c0.3,3.8,0.4,7.7,1.1,11.5s3,5.5,6.9,4"/>
	<path class="st0" d="M251.9,448.3c-0.3,2-0.7,4-1,6"/>
	<path class="st0" d="M287.9,397.8c0.1,3.7-0.7,7.6,2.5,10.5"/>
	<path class="st0" d="M289.9,386.8c0.9,0.8,1.8,1.5,3.3,2.9c0.4-0.2,1.4-0.7,2.2-1.1c0.6,0.5,1.3,1.1,2,1.7"/>
	<path class="st0" d="M115.9,71.4c-0.9,1-1.7,1.9-2.5,2.9c0.4,1.1,0.8,2.1,1.5,3.7c-1.7,0.8-3.4,1.6-5,2.4"/>
	<path class="st0" d="M282.9,384.8c1.3,1.5,2.7,3,4,4.5"/>
	<path class="st0" d="M223.4,479.8c2.2,1.5,4.3,3,6.5,4.5"/>
	<path class="st0" d="M224.4,237.9c0.4,1.9,2.1,3.9-0.5,5.5"/>
	<path class="st0" d="M200.4,365.9c-1.1,0.9-2.3,1.7-3.7,2.8c1.6,0.9,3.2,1.8,5.2,3c0,1.5,0,3.4,0,5.2"/>
	<path class="st0" d="M206.9,368.9c0.7,1.8,1.3,3.7,2,5.5"/>
	<path class="st0" d="M295.9,343.9c2.2,0.7,4.3,1.3,6.5,2"/>
	<path class="st0" d="M64.4,23.9c0.3,0.7,0.8,1.3,1,2c0.4,1.3,0.7,2.7,1,4"/>
	<path class="st0" d="M276.4,416.8c1.2,0.8,3.2,1.5,3.3,2.5c0.4,3.1,0.2,6.3,0.2,9.5"/>
	<path class="st0" d="M273.4,432.8c0,2.3,0,4.6,0,7.8c-1.1,0.2-3.3,0.7-5.7,1.2c-3.2-2-6.5-4-9.8-6"/>
	<path class="st0" d="M278.9,444.3c0.9,0.4,1.7,0.9,2.9,1.4c0.6-0.2,1.6-0.6,2.6-0.9"/>
	<path class="st0" d="M233.4,458.8c1.2,1.5,2.3,3,3.5,4.5"/>
	<path class="st0" d="M177.1,457.3c1,4.8,0.6,5.3-6.6,9.2c3.1,1,6,1.9,8.8,2.8"/>
	<path class="st0" d="M233.4,476.8c1.8,1.2,3.7,2.3,5.5,3.5"/>
	<path class="st0" d="M155.4,50.4c3.7,1.2,7.3,2.3,11,3.5"/>
	<path class="st0" d="M82.4,36.9c1.1-0.4,2.3-0.8,4.2-1.4c1.6,1.9,3.2,3.9,4.8,5.9"/>
	<path class="st0" d="M71.9,52.4c2,3.3,4,6.7,6,10"/>
	<path class="st0" d="M89.4,59.4c-0.4-0.8-0.7-1.6-1.1-2.4c-0.6,0.2-1.2,0.4-1.8,0.6c-0.7,2.1-1.4,4.2-2.1,6.3"/>
	<path class="st0" d="M278.4,399.3c-1.2,1-2.3,2-3.1,2.7c-0.5,4.3-0.9,8.3-1.4,12.3"/>
	<path class="st0" d="M142.4,77.4c1.2-0.8,2.3-1.7,3.5-2.5c0.1,0.3,0.1,0.6,0.2,0.9c2.4-0.5,4.9-0.9,7.3-1.4"/>
	<path class="st0" d="M107.9,112.4c2.4,1.6,6.7-1.6,7.6,3.6c-0.1,0.6-0.4,1.8-0.6,2.9"/>
	<path class="st0" d="M283.4,134.9c0.7,1.5,1.5,2.9,2.3,4.6c1.7,0.7,3.7,1.5,5.7,2.4"/>
	<path class="st0" d="M212.4,354.9c0.8,2.7,1.7,5.3,2.5,8"/>
	<path class="st0" d="M279.9,377.8c-1.9,0.5-3.8,0.9-5.7,1.4c-0.2,0.5-0.5,1-0.7,1.5c-0.5-1-1.1-1.9-1.6-2.9"/>
	<path class="st0" d="M304.4,374.4c-2,1.4-3.8,3.6-6.1,0.1c-0.6-0.9-2.8-0.6-5.1-1.1c0.3,2.5,0.5,4.5,0.7,6.5"/>
	<path class="st0" d="M218.9,466.8c0.4,2.2,0.8,4.4,1.2,6.6c0.3,0,0.6,0,0.9-0.1c-0.4,1.7-0.8,3.3-1.1,5"/>
	<path class="st0" d="M101.4,127.4c1.3,0.2,2.7,0.5,4,0.7"/>
	<path class="st0" d="M256.9,451.8c0.6,1.1,1.1,2.3,1.8,3.5c-2.1,1.3-4,2.6-6,3.9c0.9,2.3,1.8,4.4,2.7,6.5"/>
	<path class="st0" d="M284.4,185.9c-0.4,3.5-0.7,7-1.1,10.9c-2.6-2.4-2.6-2.4-0.4-4.9"/>
	<path class="st0" d="M169.9,395.8c-0.3,1.7-0.7,3.3-1,5"/>
	<path class="st0" d="M225.4,368.4c0.8,0.8,1.7,1.7,2.5,2.5c-0.3,0.8-0.7,1.7-1,2.5"/>
	<path class="st0" d="M162.4,54.4c-3.2,0.7-6.3,1.3-9.5,2"/>
	<path class="st0" d="M244.9,100.9c0.5,1.7,1,3.3,1.5,5"/>
	<path class="st0" d="M139.4,35.9c1.5,0.7,3,1.3,4.5,2"/>
	<path class="st0" d="M48.4,134.9c0.3,1.7,0.7,3.3,1,5"/>
	<path class="st0" d="M245.4,64.9c0.3,0.8,0.7,1.7,1.5,3.6c-3.7,0.3-7.1,0.6-10.5,0.9"/>
	<path class="st0" d="M195.9,466.8c0.7,1.7,1.3,3.3,2,5"/>
	<path class="st0" d="M280.4,120.4c2.5,2.8,5,5.7,7.5,8.5"/>
	<path class="st0" d="M155.4,48.9c-3.2,2.3-3,5.7-3,9"/>
	<path class="st0" d="M270.4,414.8c1.7,0,3.3,0,5.3,0c-0.2,3.3-0.3,6.2-0.5,9c1.7,0.4,3.2,0.7,4.7,1"/>
	<path class="st0" d="M207.9,471.3c-0.1,1.7-0.3,3.4-0.4,4.8c2.5,0.9,4.2,1.6,5.9,2.2"/>
	<path class="st0" d="M215.9,50.4c-1.5-0.7-3-1.3-4.5-2"/>
	<path class="st0" d="M217.4,432.8c0.7,1.3,1.3,2.7,2,4"/>
	<path class="st0" d="M257.4,468.8c1,1.3,2,2.7,3,4"/>
	<path class="st0" d="M45.9,36.4c-2.5,0.7-5,1.3-7.5,2"/>
	<path class="st0" d="M104.9,37.9c-0.7,2.5-1.3,5-2,7.5"/>
	<path class="st0" d="M238.4,401.8c0.4,2.6-0.1,5.6,3,7"/>
	<path class="st0" d="M233.4,465.8c0.7,1.5,1.3,3,2,4.5"/>
	<path class="st0" d="M261.4,408.8c1.2-3,2.4-1.2,3.5,0c0.6,0.7,1,1.6,1.5,2.5"/>
	<path class="st0" d="M296.4,422.8c-1.3-0.3-2.5-0.5-3.8-0.8c-0.2,0.4-0.4,0.7-0.6,1.1c1.1,1.6,2.3,3.2,3.4,4.7"/>
	<path class="st0" d="M50.4,72.9c0.8,3.8,0.5,8.1,4.5,10.5"/>
	<path class="st0" d="M86.4,57.9c-2.9-2.4-2.9-2.4-5.8,0.9c0.7,1.4,1.5,3,2.3,4.6"/>
	<path class="st0" d="M298.9,305.9c0.2,1.5,0.5,3,0.7,4.5c-0.3-0.2-0.6-0.3-0.9-0.5c-1.1,1.7-2.2,3.3-3.3,5"/>
	<path class="st0" d="M266.4,421.3c-1,0.7-2,1.4-3.2,2.2c-2.2-0.6-4.5-1.1-6.8-1.7"/>
	<path class="st0" d="M280.4,395.8c1.2-2.9,3-3.3,5.8-1.1c0.3-1.8,0.6-3.4,1-5.1c0.6,0.4,1.3,0.7,1.2,0.7c-0.4,1-1,2-1.5,3"/>
	<path class="st0" d="M273.4,369.9c-0.8,1.2-1.7,2.3-2.5,3.5"/>
	<path class="st0" d="M290.9,344.4c-0.6-0.5-1.3-1-3-2.4c0,2.5,0,4.2,0,5.9"/>
	<path class="st0" d="M252.4,418.3c-0.4,2.4-4.2,5.4,1,7"/>
	<path class="st0" d="M199.4,354.9c0.8,2.3,1.7,4.7,2.5,7"/>
	<path class="st0" d="M192.9,420.3c-2.7,3.8-5.3,7.7-8,11.5"/>
	<path class="st0" d="M202.9,440.8c-1.2-1-2.3-2-3.5-3"/>
	<path class="st0" d="M267.9,366.4c-0.7,0.8-1.3,1.7-2,2.5"/>
	<path class="st0" d="M223.4,450.8c0,1.3,0,2.7,0,4"/>
	<path class="st0" d="M256.9,446.3c2.1-1.3,4.2-2.4,5.7,0c1.3,2.5,2.5,5,3.8,7.5"/>
	<path class="st0" d="M118.4,132.9c0.3,1.3,0.7,2.7,1,4"/>
	<path class="st0" d="M177.4,347.9c1,0.3,2,0.6,3,0.9c0.1,0.4,0.1,0.8,0.2,1.2c-1.2,0.1-2.5,0.3-3.7,0.4"/>
	<path class="st0" d="M38.9,248.4c-1.2-0.1-2.3-0.2-3.5-0.3"/>
	<path class="st0" d="M224.9,456.8c-1,2.2-2,4.3-3,6.5"/>
	<path class="st0" d="M78.9,96.4c-0.3,1.3-0.7,2.7-1,4"/>
	<path class="st0" d="M186.9,415.8c-1.1-0.7-2.1-1.4-4-2.6c0.5,2.8,0.7,4.4,1,6.1"/>
	<path class="st0" d="M176.9,348.9c-0.8,1.3-1.7,2.7-2.5,4"/>
	<path class="st0" d="M218.4,440.8c0.3,1.9,0.5,3.7,0.8,5.6c0.3,0,0.6,0.1,0.9,0.1c-1,1.4-1.9,2.7-3.1,4.4c-1.3-1-2.2-1.8-3.1-2.5"
		/>
	<path class="st0" d="M208.9,59.4c0.7,1.3,1.3,2.7,2,4"/>
	<path class="st0" d="M94.4,28.9c0.7,1.2,1.3,2.3,2,3.5"/>
	<path class="st0" d="M61.9,169.9c-1.2,1.7-2.3,3.3-3.5,5"/>
	<path class="st0" d="M217.9,364.9c-0.6-0.8-1.3-1.6-1.9-2.4c-0.4,0.1-0.7,0.3-1.1,0.4c0,1.5,0,3,0,4.5"/>
	<path class="st0" d="M302.4,393.8c-0.3,1.3-0.7,2.7-1,4"/>
	<path class="st0" d="M120.4,64.4c-1.4,0-2.7,0-4.1,0c2.1,1.7,3.9,3.1,5.6,4.5"/>
	<path class="st0" d="M254.9,417.8c1.5-0.1,3-0.2,4.5-0.3c0-0.6,0.1-1.1,0.1-1.7c-1.5-0.2-3-0.4-4.5-0.6c-0.2,0.5-0.5,0.9-0.7,1.4
		c0.7,1.4,1.4,2.8,2.1,4.2"/>
	<path class="st0" d="M305.4,365.4c-1.3,0.5-2.7,1-4,1.5"/>
	<path class="st0" d="M241.4,403.8c1,1,2,2,3,3"/>
	<path class="st0" d="M301.4,402.8c0.7,1.3,1.3,2.7,2,4"/>
	<path class="st0" d="M212.4,65.4c0.5,2.5,1,5,1.5,7.5"/>
	<path class="st0" d="M279.9,411.8c2.7,0.3,5.3,0.7,8,1"/>
	<path class="st0" d="M222.9,482.3c0.8,1.3,0.3,4.8,3.5,2"/>
	<path class="st0" d="M215.4,487.8c1.6,0.4,3.1,0.8,5.5,1.4c-1-1.9-1.5-2.9-2-3.9"/>
	<path class="st0" d="M284.9,342.9c-1.3,1.5-2.7,3-4,4.5"/>
	<path class="st0" d="M220.4,494.8c-1.2-0.2-2.3-0.3-3.5-0.5"/>
	<path class="st0" d="M281.4,180.9c-1.2,1-2.3,2-4,3.5c0.1,2.6,0.3,5.5,0.5,8.5"/>
	<path class="st0" d="M294.4,376.8c1.1-0.4,2.3-0.8,4-1.4c0,1.7,0,3,0,4.4"/>
	<path class="st0" d="M210.4,239.4c-0.3,1.2-0.7,2.3-1,3.5"/>
	<path class="st0" d="M124.4,245.4c-1.2,0-2.3,0-3.5,0"/>
	<path class="st0" d="M258.9,87.4c0-0.5,0-1,0-1.5c-0.7,0.2-1.3,0.3-2,0.5"/>
	<path class="st0" d="M287.4,329.9c1.2,2.5,2.3,5,3.7,7.9c0.5-0.7,0.9-1.3,1.3-1.9"/>
	<path class="st0" d="M294.9,363.9c-0.7,2.1-4.3,2.9-2.5,6"/>
	<path class="st0" d="M174.9,507.3c-1.2-0.3-2.3-0.7-3.5-1"/>
	<path class="st0" d="M271.4,422.3c-1.9,3.8-4.4,4.3-7.5,1.5"/>
	<path class="st0" d="M276.9,420.8c0.2,2.8,0.5,5.6,0.8,9.5c-1.9-0.8-2.9-1.2-3.8-1.5"/>
	<path class="st0" d="M229.4,426.8c1,1,2,2,3,3"/>
	<path class="st0" d="M250.4,427.8c1.2,2.2,2.3,4.3,3.5,6.5"/>
	<path class="st0" d="M261.9,396.3c1,0.8,2,1.7,3,2.5"/>
	<path class="st0" d="M50.9,56.9c-0.5,1-1,2-2,4.1c0.6,0.3,1.6,0.9,2.5,1.4"/>
	<path class="st0" d="M255.9,451.8c-0.5,3.5,2.3,1.4,3.5,2"/>
	<path class="st0" d="M244.4,455.3c1.1-0.4,2.3-0.8,3.2-1.1c0.8,1.7,1.6,3.2,2.3,4.6"/>
	<path class="st0" d="M137.9,56.4c-1,0.7-2,1.3-3,2"/>
	<path class="st0" d="M261.9,465.3c0.2,1.2,0.3,2.3,0.5,3.5"/>
	<path class="st0" d="M292.9,347.9c1.2,0.2,2.3,0.3,3.5,0.5"/>
	<path class="st0" d="M296.4,331.4c-0.7,0.5-1.4,1-2.4,1.7c1.1,0.9,2,1.6,2.9,2.3"/>
	<path class="st0" d="M147.4,71.4c0,1,0,2,0,3"/>
	<path class="st0" d="M300.4,368.9c-1.8,0.2-3.7,0.3-5.5,0.5"/>
	<path class="st0" d="M262.9,430.3c5-0.5,9.5,1.2,14,3c0.6,0.2,1.3,0.3,2,0.5"/>
	<path class="st0" d="M285.9,433.8c0,1,0,2,0,2.9c-0.9,0.4-1.7,0.7-2.5,1.1"/>
	<path class="st0" d="M181.4,443.3c1.6,2.7-0.4,4-2,5.5"/>
	<path class="st0" d="M265.4,387.8c0.7,1,1.3,2,2,3"/>
	<path class="st0" d="M292.9,382.3c-1,0-2,0-3,0"/>
	<path class="st0" d="M110.9,48.4c-1.5,0.5-3,1-4.7,1.6c-1.3,2.8,0.6,4.2,2.7,5.4"/>
	<path class="st0" d="M185.4,51.9c1,0.7,2,1.3,3,2"/>
	<path class="st0" d="M131.4,37.9c0.7-0.8,1.4-1.5,2.8-2.9c0.1,1.6,0.2,2.3,0.2,2.9"/>
	<path class="st0" d="M253.4,408.8c0.7,2.2,1.3,4.3,2,6.5"/>
	<path class="st0" d="M235.9,410.3c0.8,0.5,1.7,1,2.5,1.5"/>
	<path class="st0" d="M245.9,417.3c0.3,2,0.7,4,1,6"/>
	<path class="st0" d="M293.9,366.4c1.2,2.3,0.2,3.5-2.3,4.1c0.8,1,1.5,2,2.3,2.9"/>
	<path class="st0" d="M256.4,460.3c1.7,0.3,3.4,0.6,5,1c0.7,0.2,1.3,1,2,1.5"/>
	<path class="st0" d="M62.9,54.4c0.2,0.8,0.3,1.7,0.5,2.5"/>
	<path class="st0" d="M277.9,429.3c1.2,3,2.3,6,3.5,9"/>
	<path class="st0" d="M292.4,391.8c0.7,0.3,1.3,0.6,2.1,1c1.2-0.9,2.5-1.8,3.7-2.6c0.9,0.7,1.5,1.2,2.2,1.7"/>
	<path class="st0" d="M175.9,465.3c0.2,0.8,0.3,1.7,0.5,2.5"/>
	<path class="st0" d="M291.9,338.4c-0.3,0.8-0.7,1.7-1,2.5"/>
	<path class="st0" d="M286.9,181.4c0.2,0.8,0.3,1.7,0.5,2.5"/>
	<path class="st0" d="M196.4,355.9c-0.2,2.5-0.3,5-0.5,7.5"/>
	<path class="st0" d="M179.9,396.3c0.8,0.5,1.7,1,2.1,1.2c0.2,1,0.3,1.6,0.4,2.3"/>
	<path class="st0" d="M50.9,317.4c-0.8-0.1-1.7-0.2-2.5-0.3"/>
	<path class="st0" d="M233.4,369.9c-0.2,0.8-0.3,1.7-0.5,2.5"/>
	<path class="st0" d="M263.9,385.3c-0.2,0.8-0.3,1.7-0.5,2.5"/>
	<path class="st0" d="M170.9,39.9c-0.3-0.5-0.7-1-1.1-1.5c-1.1,0.5-2.3,1-3.4,1.5"/>
	<path class="st0" d="M264.4,446.3c1.2,1.2,2.3,2.3,3.5,3.5"/>
	<path class="st0" d="M239.9,93.4c-0.3,0.7-0.7,1.3-1,2"/>
	<path class="st0" d="M258.9,420.3c-1.7,0.7-3.3,1.3-5,2"/>
	<path class="st0" d="M268.9,420.8c0.7,0.3,1.3,0.7,1.5,0.8c1.6-0.3,2.8-0.5,4-0.8"/>
	<path class="st0" d="M285.4,132.4c-0.8,0.3-2.1,0.4-2.4,1c-1.8,3.3-3.4,1.9-5.1,0"/>
	<path class="st0" d="M52.4,140.9c-0.3,0.7-0.7,1.3-1,2"/>
	<path class="st0" d="M48.9,151.4c-0.7,0-1.3,0-2,0"/>
	<path class="st0" d="M283.9,196.9c-0.2,0.7-0.3,1.3-0.5,2"/>
	<path class="st0" d="M99.6,246.9c0.7,1.3,1.5,2.7,2.2,4"/>
	<path class="st0" d="M290.4,349.4c-0.7-0.2-1.3-0.3-2-0.5"/>
	<path class="st0" d="M252.4,459.3c-0.7,0.2-1.3,0.3-2,0.5"/>
	<path class="st0" d="M205.4,365.4c0.7-0.1,1.3-0.2,2-0.2"/>
	<path class="st0" d="M270.4,409.3c0.2,0.7,0.3,1.3,0.5,2"/>
	<path class="st0" d="M176.9,66.4c-1.5-0.8-3-1.7-4.5-2.5"/>
	<path class="st0" d="M132.9,68.4c-0.7-0.3-1.3-0.7-2-1"/>
	<path class="st0" d="M93.9,78.4c0.3,0.7,0.7,1.3,1,2"/>
	<path class="st0" d="M188.4,354.9c0.3,0.3,0.7,0.7,1,1"/>
	<path class="st0" d="M291.4,312.9c0.3,0.3,0.7,0.7,1,1"/>
	<path class="st0" d="M94.4,13.9c0.3,0.3,0.7,0.7,1,1"/>
	<path class="st0" d="M242.4,410.8c0.3,0.3,0.7,0.7,1,1"/>
	<path class="st0" d="M83.4,31.9c-0.5,0.2-1,0.3-1.5,0.5"/>
	<path class="st0" d="M257.4,396.8c-0.2,0.5-0.3,1-0.5,1.5"/>
	<path class="st0" d="M277.4,358.9c0.3,0.3,0.7,0.7,1,1"/>
	<path class="st0" d="M283.4,438.3c-0.5,0.3-1,0.7-1.5,1c0.2-0.7,0.3-1.3,0.5-2"/>
	<path class="st0" d="M273.4,389.8c0.3,0.3,0.7,0.7,1,1"/>
	<path class="st0" d="M222.4,456.8c-0.3,0.3-0.7,0.7-1,1"/>
	<path class="st0" d="M48.4,145.9c-0.3,0.3-0.7,0.7-1,1"/>
	<path class="st0" d="M168.4,352.9c-0.3,0.3-0.7,0.7-1,1"/>
	<path class="st0" d="M220.9,447.3c0.2,0.5,0.3,1,0.5,1.5"/>
	<path class="st0" d="M240.4,470.8c-0.2,0.5-0.3,1-0.5,1.5"/>
</g>
<g id="Layer_3">
	<path class="st0" d="M185.6,329.4c-1.2,2.5-2.5,5-3.7,7.5"/>
	<path class="st0" d="M248.4,333.9c-1-0.8-2.1-1.6-2.6-2c-3.2,0-6,0-8.9,0"/>
	<path class="st0" d="M233.9,215.4c-3.1-1.1-5.9-4.4-9.5-1"/>
	<path class="st0" d="M254.1,134.4c2.7,2.7,1.4,6.4,2.2,9.5c1.1,4.6,1.7,9.3,2.6,14"/>
	<path class="st0" d="M183.9,327.4c-1.5-0.3-3-0.7-4.5-1"/>
	<path class="st0" d="M188.9,169.4c0.9,2.5,1.9,4.9,3,7.8c-2.3,1.2-4.4,2.2-6.5,3.2"/>
	<path class="st0" d="M189.9,173.4c-1.8,0.3-3.7,0.7-5.5,1"/>
	<path class="st0" d="M203.4,211.9c0.8,2.5,1.7,5,2.5,7.5"/>
	<path class="st0" d="M271.9,296.9c-1.8,0.2-3.7,0.3-5.5,0.5"/>
	<path class="st0" d="M266.9,463.3c-1-0.2-2-0.3-3-0.5"/>
	<path class="st0" d="M234.9,326.9c1.5-0.2,3-0.3,4.5-0.5"/>
	<path class="st0" d="M224.9,264.9c2.7,2.2,5.3,4.3,8,6.5"/>
	<path class="st0" d="M242.6,241.4c-3.6,3.9-7.3,7.8-10.6,11.5c-3-1.1-4.8-1.8-6.6-2.5"/>
	<path class="st0" d="M198.9,118.4c1.7-8.7,1.7-8.8-5-13"/>
	<path class="st0" d="M255.4,338.9c0.5-2.6,0.9-5.2,1.4-7.8c-0.4-0.2-0.8-0.3-1.2-0.5c1.3-1,2.6-2,4.3-3.3c1,1.3,1.7,2.2,2.4,3.2"/>
	<path class="st0" d="M193.9,327.9c-1.7,4.3-3.3,8.7-5,13"/>
	<path class="st0" d="M246.9,219.4c-1.8,1.3-3.6,2.7-5.5,4c-2.1,1.4-4.3,2.7-6.5,4"/>
	<path class="st0" d="M290.9,208.4c4.4-5.4,4.3-7.8-0.5-11"/>
	<path class="st0" d="M217.9,269.4c0.3,2.3-0.3,3.8-3.1,3.5c-1.8-2.6-0.9-5.3,0.1-8"/>
	<path class="st0" d="M191.4,178.4c-0.5,2.1-0.9,4.1-1.4,6.2c-2.3-0.5-4-0.9-5.6-1.2"/>
	<path class="st0" d="M274.9,309.4c-3.8,0.3-3.5,3.7-4.5,6"/>
	<path class="st0" d="M218.9,303.4c-2.1-4-5.1-3.8-8.5-2"/>
	<path class="st0" d="M201.9,90.4c-3.3,1-6.7,2-10,3"/>
	<path class="st0" d="M174.9,311.4c-0.6-2.7-1.3-3.2-5-3.5"/>
	<path class="st0" d="M173.4,296.4c-3-0.7-6-1.3-9-2"/>
	<path class="st0" d="M239.9,213.4c0.5,0.8,1,1.7,2,3.5c-2.5,0-4.5,0-6.5,0"/>
	<path class="st0" d="M229.4,306.4c-2.7,0.3-5.3,0.7-8,1"/>
	<path class="st0" d="M275.9,282.9c2.7,0.8,5.3,1.7,8,2.5"/>
	<path class="st0" d="M251.4,125.4c-2.3,0.5-4.7,1-7,1.5"/>
	<path class="st0" d="M286.9,437.8c0.6,1.3,1.1,2.6,1.8,4.3c-1,0.8-1.9,1.5-2.8,2.2"/>
	<path class="st0" d="M198.9,119.9c-0.3,2.2-0.5,4.3-0.9,7.6c1.4,0.9,3.4,2.2,5.4,3.4"/>
	<path class="st0" d="M178.4,139.4c-2.3,0.7-4.7,1.3-7,2"/>
	<path class="st0" d="M178.9,504.8c-0.2,2-0.3,4-0.5,6"/>
	<path class="st0" d="M259.4,221.9c-2.3,1.2-4.7,2.3-7,3.5"/>
	<path class="st0" d="M266.9,302.9c1.5,2.2,3,4.3,4.5,6.5"/>
	<path class="st0" d="M250.9,318.9c-1.7,7.3-3.5,9.2-8.5,9"/>
	<path class="st0" d="M204.9,294.9c0.5,2,1,4,1.5,6"/>
	<path class="st0" d="M192.4,116.4c3,1.2,6,2.3,9,3.5"/>
	<path class="st0" d="M188.9,138.4c-0.8,1.3-1.7,2.7-2.5,4"/>
	<path class="st0" d="M193.9,157.4c-1.8-1.7-3.7-3.3-5.5-5"/>
	<path class="st0" d="M234.9,339.9c0.5,2,1,4,1.5,6"/>
	<path class="st0" d="M260.4,320.4c1,1.8,2,3.7,3,5.5"/>
	<path class="st0" d="M235.4,234.4c-0.3,1.8-0.7,3.7-1,5.5"/>
	<path class="st0" d="M268.4,317.4c-1.8,1.7-2.1,3.5-0.5,5.5"/>
	<path class="st0" d="M190.9,121.4c0.8,1.2,2.3,2.3,2.4,3.5c0.2,3.7,2.3,3.2,4.6,2.5"/>
	<path class="st0" d="M276.9,275.9c-0.8,2.7-1.4,5.5-2.6,8c-1.5,3.1-1.3,5.5,1.6,7.5"/>
	<path class="st0" d="M195.4,128.4c-0.2,1.8-0.3,3.7-0.5,5.5"/>
	<path class="st0" d="M242.4,211.4c-2,1-4,2-6,3"/>
	<path class="st0" d="M197.9,114.4c-1.8,0-3.7,0-5.5,0"/>
	<path class="st0" d="M199.9,102.4c1.2,1.5,2.3,3,3.5,4.5"/>
	<path class="st0" d="M283.9,450.3c-0.5,0.8-1,1.7-1.3,2.2c-1.4,0.3-2.4,0.6-3.5,0.8"/>
	<path class="st0" d="M260.4,226.4c-1.1,1-2.2,2.1-3.4,3.2c-2,0.9-4.3,1.8-6.6,2.8"/>
	<path class="st0" d="M274.4,296.9c0.9,3.1,1.7,6.2,2.8,9.8c-2.4-1-4.1-1.6-5.8-2.3"/>
	<path class="st0" d="M185.9,324.4c-2.5-2.9-4,0.8-6,1"/>
	<path class="st0" d="M249.4,218.4c-2.3-0.3-4.7-0.7-7-1"/>
	<path class="st0" d="M225.9,257.4c1.3,0,2.7,0,4,0"/>
	<path class="st0" d="M193.9,146.4c-1.3-0.3-2.7-0.7-4-1"/>
	<path class="st0" d="M249.4,325.4c1.3,0.2,2.7,0.3,4,0.5"/>
	<path class="st0" d="M230.4,120.9c0.3,1.3,0.7,2.7,1,4"/>
	<path class="st0" d="M230.9,104.9c-0.7,1-1.3,2-2,3"/>
	<path class="st0" d="M186.9,160.4c0.7,0.8,1.4,1.6,2.1,2.5c-0.7,1.2-1.4,2.3-2.1,3.5"/>
	<path class="st0" d="M202.4,338.4c-0.5-0.4-0.9-0.8-2.4-2c-0.4,0.9-0.7,1.7-1.1,2.5"/>
	<path class="st0" d="M295.9,429.3c0,0.7,0,1.3,0,2"/>
	<path class="st0" d="M171.4,293.9c-0.5,0.2-1,0.3-1.5,0.5"/>
	<path class="st0" d="M231.4,209.9c-0.2,0.5-0.3,1-0.5,1.5"/>
	<path class="st0" d="M253.4,333.4c-0.5,0.3-1,0.7-1.5,1"/>
	<path class="st0" d="M206.4,130.9c0.3,0.3,0.7,0.7,1,1"/>
	<path class="st0" d="M198.4,134.9c0.3,0.3,0.7,0.7,1,1"/>
</g>
</svg>
